%TF.GenerationSoftware,KiCad,Pcbnew,9.0.2*%
%TF.CreationDate,2026-03-16T09:22:17+00:00*%
%TF.ProjectId,fc,66632e6b-6963-4616-945f-706362585858,rev?*%
%TF.SameCoordinates,Original*%
%TF.FileFunction,Soldermask,Bot*%
%TF.FilePolarity,Negative*%
%FSLAX46Y46*%
G04 Gerber Fmt 4.6, Leading zero omitted, Abs format (unit mm)*
G04 Created by KiCad (PCBNEW 9.0.2) date 2026-03-16 09:22:17*
%MOMM*%
%LPD*%
G01*
G04 APERTURE LIST*
G04 Aperture macros list*
%AMRoundRect*
0 Rectangle with rounded corners*
0 $1 Rounding radius*
0 $2 $3 $4 $5 $6 $7 $8 $9 X,Y pos of 4 corners*
0 Add a 4 corners polygon primitive as box body*
4,1,4,$2,$3,$4,$5,$6,$7,$8,$9,$2,$3,0*
0 Add four circle primitives for the rounded corners*
1,1,$1+$1,$2,$3*
1,1,$1+$1,$4,$5*
1,1,$1+$1,$6,$7*
1,1,$1+$1,$8,$9*
0 Add four rect primitives between the rounded corners*
20,1,$1+$1,$2,$3,$4,$5,0*
20,1,$1+$1,$4,$5,$6,$7,0*
20,1,$1+$1,$6,$7,$8,$9,0*
20,1,$1+$1,$8,$9,$2,$3,0*%
G04 Aperture macros list end*
%ADD10C,0.700000*%
%ADD11O,1.800000X1.200000*%
%ADD12O,2.000000X1.100000*%
%ADD13RoundRect,0.250000X-0.350000X0.350000X-0.350000X-0.350000X0.350000X-0.350000X0.350000X0.350000X0*%
%ADD14C,1.200000*%
%ADD15RoundRect,0.250000X-0.550000X-0.550000X0.550000X-0.550000X0.550000X0.550000X-0.550000X0.550000X0*%
%ADD16C,1.600000*%
%ADD17RoundRect,0.250000X0.350000X-0.350000X0.350000X0.350000X-0.350000X0.350000X-0.350000X-0.350000X0*%
%ADD18RoundRect,0.250000X-0.350000X-0.350000X0.350000X-0.350000X0.350000X0.350000X-0.350000X0.350000X0*%
%ADD19RoundRect,0.250000X0.350000X0.350000X-0.350000X0.350000X-0.350000X-0.350000X0.350000X-0.350000X0*%
%ADD20C,1.000000*%
%ADD21C,2.000000*%
%ADD22RoundRect,0.250000X-0.750000X0.750000X-0.750000X-0.750000X0.750000X-0.750000X0.750000X0.750000X0*%
%ADD23RoundRect,0.250000X0.550000X0.550000X-0.550000X0.550000X-0.550000X-0.550000X0.550000X-0.550000X0*%
%ADD24RoundRect,0.250000X0.550000X-0.550000X0.550000X0.550000X-0.550000X0.550000X-0.550000X-0.550000X0*%
%ADD25C,1.700000*%
%ADD26R,1.700000X1.700000*%
G04 APERTURE END LIST*
D10*
%TO.C,USB1*%
X138653500Y-100934000D03*
X138653500Y-95154000D03*
D11*
X134973500Y-102364000D03*
X134973500Y-93724000D03*
D12*
X139183500Y-102364000D03*
X139183500Y-93724000D03*
%TD*%
D13*
%TO.C,C23*%
X161544000Y-93242000D03*
D14*
X161544000Y-94742000D03*
%TD*%
D15*
%TO.C,C17*%
X156425388Y-106045000D03*
D16*
X158425388Y-106045000D03*
%TD*%
D17*
%TO.C,C27*%
X165189000Y-112498000D03*
D14*
X165189000Y-110998000D03*
%TD*%
%TO.C,C19*%
X181498401Y-92583000D03*
D18*
X179998401Y-92583000D03*
%TD*%
%TO.C,C22*%
X144819401Y-102489000D03*
D14*
X146319401Y-102489000D03*
%TD*%
D18*
%TO.C,C18*%
X151538500Y-101473000D03*
D14*
X153038500Y-101473000D03*
%TD*%
D17*
%TO.C,C21*%
X159385000Y-90511599D03*
D14*
X159385000Y-89011599D03*
%TD*%
%TO.C,C20*%
X172593000Y-98806000D03*
D13*
X172593000Y-97306000D03*
%TD*%
D17*
%TO.C,C25*%
X178308000Y-80224600D03*
D14*
X178308000Y-78724600D03*
%TD*%
D17*
%TO.C,C26*%
X159639000Y-112498000D03*
D14*
X159639000Y-110998000D03*
%TD*%
D19*
%TO.C,C24*%
X175871000Y-89154000D03*
D14*
X174371000Y-89154000D03*
%TD*%
D17*
%TO.C,C29*%
X176289000Y-112498000D03*
D14*
X176289000Y-110998000D03*
%TD*%
%TO.C,C34*%
X176276000Y-106283600D03*
D17*
X176276000Y-107783600D03*
%TD*%
D14*
%TO.C,C32*%
X165227000Y-106283600D03*
D17*
X165227000Y-107783600D03*
%TD*%
D20*
%TO.C,Card1*%
X198247000Y-72517000D03*
X198247000Y-80517000D03*
%TD*%
D14*
%TO.C,C33*%
X170561000Y-106283600D03*
D17*
X170561000Y-107783600D03*
%TD*%
%TO.C,C30*%
X181839000Y-112498000D03*
D14*
X181839000Y-110998000D03*
%TD*%
%TO.C,C35*%
X150217000Y-78435000D03*
D18*
X148717000Y-78435000D03*
%TD*%
D17*
%TO.C,C28*%
X170739000Y-112498000D03*
D14*
X170739000Y-110998000D03*
%TD*%
D17*
%TO.C,C31*%
X181737000Y-107418000D03*
D14*
X181737000Y-105918000D03*
%TD*%
%TO.C,C36*%
X150217000Y-83985000D03*
D18*
X148717000Y-83985000D03*
%TD*%
D14*
%TO.C,C37*%
X150217000Y-89535000D03*
D18*
X148717000Y-89535000D03*
%TD*%
D21*
%TO.C,J1*%
X138049000Y-120523000D03*
D22*
X138049000Y-117983000D03*
%TD*%
D16*
%TO.C,C6*%
X166947651Y-125984000D03*
D23*
X171947651Y-125984000D03*
%TD*%
D14*
%TO.C,C1*%
X169188000Y-142621000D03*
D19*
X170688000Y-142621000D03*
%TD*%
D16*
%TO.C,C4*%
X180086000Y-123444000D03*
D15*
X177586000Y-123444000D03*
%TD*%
D16*
%TO.C,C2*%
X168021000Y-134297394D03*
D24*
X168021000Y-136797394D03*
%TD*%
D14*
%TO.C,C5*%
X185420000Y-127762000D03*
D17*
X185420000Y-129262000D03*
%TD*%
D16*
%TO.C,C3*%
X196410606Y-128778000D03*
D15*
X193910606Y-128778000D03*
%TD*%
%TO.C,C11*%
X149079606Y-141859000D03*
D16*
X151579606Y-141859000D03*
%TD*%
D18*
%TO.C,C13*%
X143661000Y-128397000D03*
D14*
X145161000Y-128397000D03*
%TD*%
D13*
%TO.C,C15*%
X145823500Y-107085000D03*
D14*
X145823500Y-108585000D03*
%TD*%
D15*
%TO.C,C16*%
X158711388Y-99060000D03*
D16*
X160711388Y-99060000D03*
%TD*%
D14*
%TO.C,C7*%
X150637401Y-123190000D03*
D18*
X149137401Y-123190000D03*
%TD*%
D23*
%TO.C,C9*%
X160020000Y-133350000D03*
D16*
X157520000Y-133350000D03*
%TD*%
D13*
%TO.C,C14*%
X144653000Y-132485000D03*
D14*
X144653000Y-133985000D03*
%TD*%
D16*
%TO.C,C8*%
X157284394Y-125095000D03*
D23*
X159784394Y-125095000D03*
%TD*%
D24*
%TO.C,C10*%
X158623000Y-143089000D03*
D16*
X158623000Y-140589000D03*
%TD*%
D18*
%TO.C,C12*%
X143676401Y-123444000D03*
D14*
X145176401Y-123444000D03*
%TD*%
D25*
%TO.C,S3*%
X200025000Y-105283000D03*
X197485000Y-105283000D03*
D26*
X194945000Y-105283000D03*
%TD*%
D25*
%TO.C,S1*%
X200152000Y-97409000D03*
X197612000Y-97409000D03*
D26*
X195072000Y-97409000D03*
%TD*%
%TO.C,S7*%
X151511000Y-68961000D03*
D25*
X154051000Y-68961000D03*
X156591000Y-68961000D03*
%TD*%
%TO.C,S2*%
X200152000Y-101600000D03*
X197612000Y-101600000D03*
D26*
X195072000Y-101600000D03*
%TD*%
D25*
%TO.C,S4*%
X200152000Y-109220000D03*
X197612000Y-109220000D03*
D26*
X195072000Y-109220000D03*
%TD*%
D25*
%TO.C,S5*%
X200279000Y-113030000D03*
X197739000Y-113030000D03*
D26*
X195199000Y-113030000D03*
%TD*%
D25*
%TO.C,S6*%
X200279000Y-117221000D03*
X197739000Y-117221000D03*
D26*
X195199000Y-117221000D03*
%TD*%
M02*
