%TF.GenerationSoftware,KiCad,Pcbnew,9.0.2*%
%TF.CreationDate,2026-03-16T09:22:17+00:00*%
%TF.ProjectId,fc,66632e6b-6963-4616-945f-706362585858,rev?*%
%TF.SameCoordinates,Original*%
%TF.FileFunction,Soldermask,Top*%
%TF.FilePolarity,Negative*%
%FSLAX46Y46*%
G04 Gerber Fmt 4.6, Leading zero omitted, Abs format (unit mm)*
G04 Created by KiCad (PCBNEW 9.0.2) date 2026-03-16 09:22:17*
%MOMM*%
%LPD*%
G01*
G04 APERTURE LIST*
G04 Aperture macros list*
%AMRoundRect*
0 Rectangle with rounded corners*
0 $1 Rounding radius*
0 $2 $3 $4 $5 $6 $7 $8 $9 X,Y pos of 4 corners*
0 Add a 4 corners polygon primitive as box body*
4,1,4,$2,$3,$4,$5,$6,$7,$8,$9,$2,$3,0*
0 Add four circle primitives for the rounded corners*
1,1,$1+$1,$2,$3*
1,1,$1+$1,$4,$5*
1,1,$1+$1,$6,$7*
1,1,$1+$1,$8,$9*
0 Add four rect primitives between the rounded corners*
20,1,$1+$1,$2,$3,$4,$5,0*
20,1,$1+$1,$4,$5,$6,$7,0*
20,1,$1+$1,$6,$7,$8,$9,0*
20,1,$1+$1,$8,$9,$2,$3,0*%
%AMFreePoly0*
4,1,14,0.195355,0.135355,0.295355,0.035355,0.310000,0.000000,0.310000,-0.100000,0.295355,-0.135355,0.260000,-0.150000,-0.250000,-0.150000,-0.285355,-0.135355,-0.300000,-0.100000,-0.300000,0.100000,-0.285355,0.135355,-0.250000,0.150000,0.160000,0.150000,0.195355,0.135355,0.195355,0.135355,$1*%
%AMFreePoly1*
4,1,15,0.031662,0.298698,0.035355,0.295355,0.135355,0.195355,0.150000,0.160000,0.150000,-0.250000,0.135355,-0.285355,0.100000,-0.300000,-0.100000,-0.300000,-0.135355,-0.285355,-0.150000,-0.250000,-0.150000,0.250000,-0.135355,0.285355,-0.104975,0.299752,-0.004975,0.309752,0.031662,0.298698,0.031662,0.298698,$1*%
%AMFreePoly2*
4,1,15,0.004975,0.309752,0.104975,0.299752,0.138698,0.281662,0.150000,0.250000,0.150000,-0.250000,0.135355,-0.285355,0.100000,-0.300000,-0.100000,-0.300000,-0.135355,-0.285355,-0.150000,-0.250000,-0.150000,0.160000,-0.135355,0.195355,-0.035355,0.295355,0.000000,0.310000,0.004975,0.309752,0.004975,0.309752,$1*%
%AMFreePoly3*
4,1,14,0.135355,0.285355,0.150000,0.250000,0.150000,-0.160000,0.135355,-0.195355,0.035355,-0.295355,0.000000,-0.310000,-0.100000,-0.310000,-0.135355,-0.295355,-0.150000,-0.260000,-0.150000,0.250000,-0.135355,0.285355,-0.100000,0.300000,0.100000,0.300000,0.135355,0.285355,0.135355,0.285355,$1*%
%AMFreePoly4*
4,1,14,0.285355,0.135355,0.300000,0.100000,0.300000,-0.100000,0.285355,-0.135355,0.250000,-0.150000,-0.260000,-0.150000,-0.295355,-0.135355,-0.310000,-0.100000,-0.310000,0.000000,-0.295355,0.035355,-0.195355,0.135355,-0.160000,0.150000,0.250000,0.150000,0.285355,0.135355,0.285355,0.135355,$1*%
%AMFreePoly5*
4,1,15,0.285355,0.135355,0.300000,0.100000,0.300000,-0.100000,0.285355,-0.135355,0.250000,-0.150000,-0.160000,-0.150000,-0.195355,-0.135355,-0.295355,-0.035355,-0.310000,0.000000,-0.309752,0.004975,-0.299752,0.104975,-0.281662,0.138698,-0.250000,0.150000,0.250000,0.150000,0.285355,0.135355,0.285355,0.135355,$1*%
%AMFreePoly6*
4,1,14,0.295355,0.135355,0.310000,0.100000,0.310000,0.000000,0.295355,-0.035355,0.195355,-0.135355,0.160000,-0.150000,-0.250000,-0.150000,-0.285355,-0.135355,-0.300000,-0.100000,-0.300000,0.100000,-0.285355,0.135355,-0.250000,0.150000,0.260000,0.150000,0.295355,0.135355,0.295355,0.135355,$1*%
%AMFreePoly7*
4,1,14,0.135355,0.285355,0.150000,0.250000,0.150000,-0.260000,0.135355,-0.295355,0.100000,-0.310000,0.000000,-0.310000,-0.035355,-0.295355,-0.135355,-0.195355,-0.150000,-0.160000,-0.150000,0.250000,-0.135355,0.285355,-0.100000,0.300000,0.100000,0.300000,0.135355,0.285355,0.135355,0.285355,$1*%
G04 Aperture macros list end*
%ADD10R,1.200000X1.400000*%
%ADD11R,2.800000X2.800000*%
%ADD12R,0.700000X0.280000*%
%ADD13R,0.280000X0.700000*%
%ADD14C,0.700000*%
%ADD15O,1.800000X1.200000*%
%ADD16O,2.000000X1.100000*%
%ADD17R,1.100000X0.550000*%
%ADD18R,1.100000X0.300000*%
%ADD19R,0.530000X1.070000*%
%ADD20RoundRect,0.075000X-0.700000X-0.075000X0.700000X-0.075000X0.700000X0.075000X-0.700000X0.075000X0*%
%ADD21RoundRect,0.075000X-0.075000X-0.700000X0.075000X-0.700000X0.075000X0.700000X-0.075000X0.700000X0*%
%ADD22R,1.800000X1.000000*%
%ADD23RoundRect,0.250000X-0.350000X0.350000X-0.350000X-0.350000X0.350000X-0.350000X0.350000X0.350000X0*%
%ADD24C,1.200000*%
%ADD25RoundRect,0.250000X-0.550000X-0.550000X0.550000X-0.550000X0.550000X0.550000X-0.550000X0.550000X0*%
%ADD26C,1.600000*%
%ADD27RoundRect,0.250000X0.350000X-0.350000X0.350000X0.350000X-0.350000X0.350000X-0.350000X-0.350000X0*%
%ADD28RoundRect,0.250000X-0.350000X-0.350000X0.350000X-0.350000X0.350000X0.350000X-0.350000X0.350000X0*%
%ADD29RoundRect,0.250000X0.350000X0.350000X-0.350000X0.350000X-0.350000X-0.350000X0.350000X-0.350000X0*%
%ADD30RoundRect,0.249999X-1.425001X0.512501X-1.425001X-0.512501X1.425001X-0.512501X1.425001X0.512501X0*%
%ADD31C,1.000000*%
%ADD32R,2.000000X1.200000*%
%ADD33R,1.400000X1.200000*%
%ADD34R,1.300000X0.600000*%
%ADD35C,2.000000*%
%ADD36RoundRect,0.250000X-0.750000X0.750000X-0.750000X-0.750000X0.750000X-0.750000X0.750000X0.750000X0*%
%ADD37R,0.860000X0.800000*%
%ADD38RoundRect,0.250000X-0.312500X-1.450000X0.312500X-1.450000X0.312500X1.450000X-0.312500X1.450000X0*%
%ADD39RoundRect,0.250000X-0.350000X0.275000X-0.350000X-0.275000X0.350000X-0.275000X0.350000X0.275000X0*%
%ADD40RoundRect,0.075000X-0.125000X-0.075000X0.125000X-0.075000X0.125000X0.075000X-0.125000X0.075000X0*%
%ADD41RoundRect,0.250000X0.350000X-0.275000X0.350000X0.275000X-0.350000X0.275000X-0.350000X-0.275000X0*%
%ADD42RoundRect,0.250000X-1.450000X0.312500X-1.450000X-0.312500X1.450000X-0.312500X1.450000X0.312500X0*%
%ADD43RoundRect,0.250000X0.312500X1.450000X-0.312500X1.450000X-0.312500X-1.450000X0.312500X-1.450000X0*%
%ADD44RoundRect,0.250000X0.362500X1.425000X-0.362500X1.425000X-0.362500X-1.425000X0.362500X-1.425000X0*%
%ADD45RoundRect,0.250000X1.075000X-0.362500X1.075000X0.362500X-1.075000X0.362500X-1.075000X-0.362500X0*%
%ADD46RoundRect,0.250000X1.450000X-0.312500X1.450000X0.312500X-1.450000X0.312500X-1.450000X-0.312500X0*%
%ADD47RoundRect,0.250001X-1.262499X-1.974999X1.262499X-1.974999X1.262499X1.974999X-1.262499X1.974999X0*%
%ADD48R,0.250000X0.600000*%
%ADD49R,0.600000X0.250000*%
%ADD50R,0.250000X1.350000*%
%ADD51R,0.250000X1.800000*%
%ADD52R,0.250000X0.750000*%
%ADD53R,0.300000X0.300000*%
%ADD54RoundRect,0.200000X0.800000X-0.200000X0.800000X0.200000X-0.800000X0.200000X-0.800000X-0.200000X0*%
%ADD55RoundRect,0.200000X-0.800000X0.200000X-0.800000X-0.200000X0.800000X-0.200000X0.800000X0.200000X0*%
%ADD56FreePoly0,0.000000*%
%ADD57FreePoly1,0.000000*%
%ADD58FreePoly2,0.000000*%
%ADD59FreePoly3,0.000000*%
%ADD60FreePoly4,0.000000*%
%ADD61FreePoly5,0.000000*%
%ADD62FreePoly6,0.000000*%
%ADD63R,1.700000X1.700000*%
%ADD64R,0.510000X0.200000*%
%ADD65FreePoly7,0.000000*%
%ADD66R,0.200000X0.510000*%
%ADD67RoundRect,0.250000X0.550000X0.550000X-0.550000X0.550000X-0.550000X-0.550000X0.550000X-0.550000X0*%
%ADD68RoundRect,0.250000X0.550000X-0.550000X0.550000X0.550000X-0.550000X0.550000X-0.550000X-0.550000X0*%
%ADD69C,1.700000*%
G04 APERTURE END LIST*
D10*
%TO.C,X1*%
X157441000Y-84117000D03*
X157441000Y-86317000D03*
X155741000Y-86317000D03*
X155741000Y-84117000D03*
%TD*%
D11*
%TO.C,U5*%
X179578000Y-136017000D03*
D12*
X177568000Y-137267000D03*
X177568000Y-136767000D03*
X177568000Y-136267000D03*
X177568000Y-135767000D03*
X177568000Y-135267000D03*
X177568000Y-134767000D03*
D13*
X178328000Y-134017000D03*
X178818000Y-134017000D03*
X179318000Y-134017000D03*
X179818000Y-134017000D03*
X180318000Y-134017000D03*
X180818000Y-134017000D03*
D12*
X181568000Y-134767000D03*
X181568000Y-135267000D03*
X181568000Y-135767000D03*
X181568000Y-136267000D03*
X181568000Y-136767000D03*
X181568000Y-137267000D03*
D13*
X180818000Y-138017000D03*
X180318000Y-138017000D03*
X179818000Y-138017000D03*
X179318000Y-138017000D03*
X178818000Y-138017000D03*
X178318000Y-138017000D03*
%TD*%
D14*
%TO.C,USB1*%
X138653500Y-100934000D03*
X138653500Y-95154000D03*
D15*
X134973500Y-102364000D03*
X134973500Y-93724000D03*
D16*
X139183500Y-102364000D03*
X139183500Y-93724000D03*
D17*
X139733500Y-101244000D03*
X139733500Y-100444000D03*
D18*
X139733500Y-99794000D03*
X139733500Y-99294000D03*
X139733500Y-98794000D03*
X139733500Y-98294000D03*
X139733500Y-97794000D03*
X139733500Y-97294000D03*
X139733500Y-96794000D03*
X139733500Y-96294000D03*
D17*
X139733500Y-95644000D03*
X139733500Y-94844000D03*
%TD*%
D19*
%TO.C,U6*%
X153250500Y-108846000D03*
X152300500Y-108846000D03*
X151350500Y-108846000D03*
X151350500Y-106546000D03*
X152300500Y-106546000D03*
X153250500Y-106546000D03*
%TD*%
D20*
%TO.C,U7*%
X161965000Y-78419000D03*
X161965000Y-78919000D03*
X161965000Y-79419000D03*
X161965000Y-79919000D03*
X161965000Y-80419000D03*
X161965000Y-80919000D03*
X161965000Y-81419000D03*
X161965000Y-81919000D03*
X161965000Y-82419000D03*
X161965000Y-82919000D03*
X161965000Y-83419000D03*
X161965000Y-83919000D03*
X161965000Y-84419000D03*
X161965000Y-84919000D03*
X161965000Y-85419000D03*
X161965000Y-85919000D03*
D21*
X163890000Y-87844000D03*
X164390000Y-87844000D03*
X164890000Y-87844000D03*
X165390000Y-87844000D03*
X165890000Y-87844000D03*
X166390000Y-87844000D03*
X166890000Y-87844000D03*
X167390000Y-87844000D03*
X167890000Y-87844000D03*
X168390000Y-87844000D03*
X168890000Y-87844000D03*
X169390000Y-87844000D03*
X169890000Y-87844000D03*
X170390000Y-87844000D03*
X170890000Y-87844000D03*
X171390000Y-87844000D03*
D20*
X173315000Y-85919000D03*
X173315000Y-85419000D03*
X173315000Y-84919000D03*
X173315000Y-84419000D03*
X173315000Y-83919000D03*
X173315000Y-83419000D03*
X173315000Y-82919000D03*
X173315000Y-82419000D03*
X173315000Y-81919000D03*
X173315000Y-81419000D03*
X173315000Y-80919000D03*
X173315000Y-80419000D03*
X173315000Y-79919000D03*
X173315000Y-79419000D03*
X173315000Y-78919000D03*
X173315000Y-78419000D03*
D21*
X171390000Y-76494000D03*
X170890000Y-76494000D03*
X170390000Y-76494000D03*
X169890000Y-76494000D03*
X169390000Y-76494000D03*
X168890000Y-76494000D03*
X168390000Y-76494000D03*
X167890000Y-76494000D03*
X167390000Y-76494000D03*
X166890000Y-76494000D03*
X166390000Y-76494000D03*
X165890000Y-76494000D03*
X165390000Y-76494000D03*
X164890000Y-76494000D03*
X164390000Y-76494000D03*
X163890000Y-76494000D03*
%TD*%
D22*
%TO.C,X2*%
X153416000Y-81768000D03*
X153416000Y-79268000D03*
%TD*%
D23*
%TO.C,C23*%
X161544000Y-93242000D03*
D24*
X161544000Y-94742000D03*
%TD*%
D25*
%TO.C,C17*%
X156425388Y-106045000D03*
D26*
X158425388Y-106045000D03*
%TD*%
D27*
%TO.C,C27*%
X165189000Y-112498000D03*
D24*
X165189000Y-110998000D03*
%TD*%
%TO.C,C19*%
X181498401Y-92583000D03*
D28*
X179998401Y-92583000D03*
%TD*%
%TO.C,C22*%
X144819401Y-102489000D03*
D24*
X146319401Y-102489000D03*
%TD*%
D28*
%TO.C,C18*%
X151538500Y-101473000D03*
D24*
X153038500Y-101473000D03*
%TD*%
D27*
%TO.C,C21*%
X159385000Y-90511599D03*
D24*
X159385000Y-89011599D03*
%TD*%
%TO.C,C20*%
X172593000Y-98806000D03*
D23*
X172593000Y-97306000D03*
%TD*%
D27*
%TO.C,C25*%
X178308000Y-80224600D03*
D24*
X178308000Y-78724600D03*
%TD*%
D27*
%TO.C,C26*%
X159639000Y-112498000D03*
D24*
X159639000Y-110998000D03*
%TD*%
D29*
%TO.C,C24*%
X175871000Y-89154000D03*
D24*
X174371000Y-89154000D03*
%TD*%
D27*
%TO.C,C29*%
X176289000Y-112498000D03*
D24*
X176289000Y-110998000D03*
%TD*%
%TO.C,C34*%
X176276000Y-106283600D03*
D27*
X176276000Y-107783600D03*
%TD*%
D24*
%TO.C,C32*%
X165227000Y-106283600D03*
D27*
X165227000Y-107783600D03*
%TD*%
D30*
%TO.C,D1*%
X175133000Y-145669000D03*
X175133000Y-139694000D03*
%TD*%
D31*
%TO.C,Card1*%
X198247000Y-72517000D03*
X198247000Y-80517000D03*
D32*
X197957000Y-83327000D03*
X197957000Y-67807000D03*
D33*
X188247000Y-68647000D03*
X188247000Y-83327000D03*
D34*
X187397000Y-82127000D03*
X187397000Y-81027000D03*
X187397000Y-79927000D03*
X187397000Y-78827000D03*
X187397000Y-77727000D03*
X187397000Y-76627000D03*
X187397000Y-75527000D03*
X187397000Y-74427000D03*
X187397000Y-73327000D03*
%TD*%
D24*
%TO.C,C33*%
X170561000Y-106283600D03*
D27*
X170561000Y-107783600D03*
%TD*%
%TO.C,C30*%
X181839000Y-112498000D03*
D24*
X181839000Y-110998000D03*
%TD*%
%TO.C,C35*%
X150217000Y-78435000D03*
D28*
X148717000Y-78435000D03*
%TD*%
D27*
%TO.C,C28*%
X170739000Y-112498000D03*
D24*
X170739000Y-110998000D03*
%TD*%
D27*
%TO.C,C31*%
X181737000Y-107418000D03*
D24*
X181737000Y-105918000D03*
%TD*%
%TO.C,C36*%
X150217000Y-83985000D03*
D28*
X148717000Y-83985000D03*
%TD*%
D24*
%TO.C,C37*%
X150217000Y-89535000D03*
D28*
X148717000Y-89535000D03*
%TD*%
D35*
%TO.C,J1*%
X138049000Y-120523000D03*
D36*
X138049000Y-117983000D03*
%TD*%
D37*
%TO.C,L4*%
X175387000Y-76135000D03*
X175387000Y-77535000D03*
%TD*%
D38*
%TO.C,R3*%
X141837500Y-90487500D03*
X137562500Y-90487500D03*
%TD*%
D39*
%TO.C,L2*%
X153289000Y-125342000D03*
X153289000Y-127642000D03*
%TD*%
D40*
%TO.C,L3*%
X152804500Y-105156000D03*
X152304500Y-105156000D03*
%TD*%
D41*
%TO.C,L1*%
X174625000Y-130930000D03*
X174625000Y-133230000D03*
%TD*%
D38*
%TO.C,R2*%
X140948500Y-105854500D03*
X136673500Y-105854500D03*
%TD*%
%TO.C,R11*%
X195304500Y-144907000D03*
X191029500Y-144907000D03*
%TD*%
D42*
%TO.C,R13*%
X151511000Y-132609500D03*
X151511000Y-136884500D03*
%TD*%
D38*
%TO.C,R4*%
X188954500Y-139065000D03*
X184679500Y-139065000D03*
%TD*%
%TO.C,R5*%
X140570811Y-140987000D03*
X144845811Y-140987000D03*
%TD*%
%TO.C,R10*%
X201781500Y-144907000D03*
X197506500Y-144907000D03*
%TD*%
D43*
%TO.C,R8*%
X184679500Y-134747000D03*
X188954500Y-134747000D03*
%TD*%
D38*
%TO.C,R9*%
X182731500Y-144907000D03*
X178456500Y-144907000D03*
%TD*%
D44*
%TO.C,R6*%
X185759500Y-123444000D03*
X191684500Y-123444000D03*
%TD*%
D43*
%TO.C,R7*%
X185932804Y-118605000D03*
X190207804Y-118605000D03*
%TD*%
D38*
%TO.C,R12*%
X184679500Y-144907000D03*
X188954500Y-144907000D03*
%TD*%
D45*
%TO.C,R15*%
X155475500Y-114580500D03*
X155475500Y-109955500D03*
%TD*%
D46*
%TO.C,R16*%
X147828000Y-98911500D03*
X147828000Y-94636500D03*
%TD*%
D47*
%TO.C,R14*%
X145851000Y-113157000D03*
X150876000Y-113157000D03*
%TD*%
D46*
%TO.C,R21*%
X195072000Y-92307500D03*
X195072000Y-88032500D03*
%TD*%
D38*
%TO.C,R20*%
X187219500Y-87757000D03*
X191494500Y-87757000D03*
%TD*%
D46*
%TO.C,R23*%
X184277000Y-78783000D03*
X184277000Y-83058000D03*
%TD*%
D38*
%TO.C,R19*%
X187092500Y-92710000D03*
X191367500Y-92710000D03*
%TD*%
D46*
%TO.C,R17*%
X152146000Y-98276500D03*
X152146000Y-94001500D03*
%TD*%
D42*
%TO.C,R18*%
X174625000Y-74019500D03*
X174625000Y-69744500D03*
%TD*%
D38*
%TO.C,R22*%
X178583500Y-75184000D03*
X182858500Y-75184000D03*
%TD*%
%TO.C,R24*%
X161946500Y-72390000D03*
X166221500Y-72390000D03*
%TD*%
%TO.C,RR1*%
X195685500Y-136906000D03*
X191410500Y-136906000D03*
%TD*%
D48*
%TO.C,U3*%
X149187811Y-129557000D03*
X149687811Y-129557000D03*
X150187811Y-129557000D03*
X150687811Y-129557000D03*
D49*
X151337811Y-129137000D03*
X151337811Y-128637000D03*
X151337811Y-128137000D03*
X151337811Y-127637000D03*
D50*
X150437811Y-127637000D03*
D51*
X149937811Y-127867000D03*
D50*
X149437811Y-127637000D03*
D49*
X148537811Y-127637000D03*
X148537811Y-128137000D03*
X148537811Y-128637000D03*
X148537811Y-129137000D03*
D52*
X148707811Y-127887000D03*
X151167811Y-127887000D03*
%TD*%
D53*
%TO.C,U4*%
X178046000Y-98679000D03*
X177546000Y-98679000D03*
X177046000Y-98679000D03*
X176766000Y-98149000D03*
X176766000Y-97649000D03*
X177046000Y-97119000D03*
X177546000Y-97119000D03*
X178046000Y-97119000D03*
X178326000Y-97649000D03*
X178326000Y-98149000D03*
%TD*%
D54*
%TO.C,SW1*%
X137922000Y-85285000D03*
X137922000Y-81085000D03*
%TD*%
D55*
%TO.C,SW2*%
X137922000Y-74735000D03*
X137922000Y-78935000D03*
%TD*%
D56*
%TO.C,U1*%
X154780000Y-92472000D03*
D57*
X157210000Y-94902000D03*
D58*
X155210000Y-94902000D03*
D59*
X157210000Y-92042000D03*
D60*
X157640000Y-92472000D03*
D61*
X157640000Y-94472000D03*
D62*
X154780000Y-94472000D03*
D63*
X156210000Y-93472000D03*
D64*
X154780000Y-94072000D03*
X154780000Y-93672000D03*
X154780000Y-93272000D03*
X154780000Y-92872000D03*
D65*
X155210000Y-92042000D03*
D66*
X155610000Y-92042000D03*
X156010000Y-92042000D03*
X156410000Y-92042000D03*
X156810000Y-92042000D03*
D64*
X157640000Y-92872000D03*
X157640000Y-93272000D03*
X157640000Y-93672000D03*
X157640000Y-94072000D03*
D66*
X156810000Y-94902000D03*
X156410000Y-94902000D03*
X156010000Y-94902000D03*
X155610000Y-94902000D03*
%TD*%
D26*
%TO.C,C6*%
X166947651Y-125984000D03*
D67*
X171947651Y-125984000D03*
%TD*%
D24*
%TO.C,C1*%
X169188000Y-142621000D03*
D29*
X170688000Y-142621000D03*
%TD*%
D26*
%TO.C,C4*%
X180086000Y-123444000D03*
D25*
X177586000Y-123444000D03*
%TD*%
D26*
%TO.C,C2*%
X168021000Y-134297394D03*
D68*
X168021000Y-136797394D03*
%TD*%
D24*
%TO.C,C5*%
X185420000Y-127762000D03*
D27*
X185420000Y-129262000D03*
%TD*%
D26*
%TO.C,C3*%
X196410606Y-128778000D03*
D25*
X193910606Y-128778000D03*
%TD*%
%TO.C,C11*%
X149079606Y-141859000D03*
D26*
X151579606Y-141859000D03*
%TD*%
D28*
%TO.C,C13*%
X143661000Y-128397000D03*
D24*
X145161000Y-128397000D03*
%TD*%
D23*
%TO.C,C15*%
X145823500Y-107085000D03*
D24*
X145823500Y-108585000D03*
%TD*%
D25*
%TO.C,C16*%
X158711388Y-99060000D03*
D26*
X160711388Y-99060000D03*
%TD*%
D24*
%TO.C,C7*%
X150637401Y-123190000D03*
D28*
X149137401Y-123190000D03*
%TD*%
D67*
%TO.C,C9*%
X160020000Y-133350000D03*
D26*
X157520000Y-133350000D03*
%TD*%
D23*
%TO.C,C14*%
X144653000Y-132485000D03*
D24*
X144653000Y-133985000D03*
%TD*%
D26*
%TO.C,C8*%
X157284394Y-125095000D03*
D67*
X159784394Y-125095000D03*
%TD*%
D68*
%TO.C,C10*%
X158623000Y-143089000D03*
D26*
X158623000Y-140589000D03*
%TD*%
D28*
%TO.C,C12*%
X143676401Y-123444000D03*
D24*
X145176401Y-123444000D03*
%TD*%
D69*
%TO.C,S3*%
X200025000Y-105283000D03*
X197485000Y-105283000D03*
D63*
X194945000Y-105283000D03*
%TD*%
D69*
%TO.C,S1*%
X200152000Y-97409000D03*
X197612000Y-97409000D03*
D63*
X195072000Y-97409000D03*
%TD*%
%TO.C,S7*%
X151511000Y-68961000D03*
D69*
X154051000Y-68961000D03*
X156591000Y-68961000D03*
%TD*%
%TO.C,S2*%
X200152000Y-101600000D03*
X197612000Y-101600000D03*
D63*
X195072000Y-101600000D03*
%TD*%
D69*
%TO.C,S4*%
X200152000Y-109220000D03*
X197612000Y-109220000D03*
D63*
X195072000Y-109220000D03*
%TD*%
D69*
%TO.C,S5*%
X200279000Y-113030000D03*
X197739000Y-113030000D03*
D63*
X195199000Y-113030000D03*
%TD*%
D69*
%TO.C,S6*%
X200279000Y-117221000D03*
X197739000Y-117221000D03*
D63*
X195199000Y-117221000D03*
%TD*%
M02*
