%TF.GenerationSoftware,KiCad,Pcbnew,9.0.2*%
%TF.CreationDate,2026-03-17T01:32:35+00:00*%
%TF.ProjectId,fc,66632e6b-6963-4616-945f-706362585858,rev?*%
%TF.SameCoordinates,Original*%
%TF.FileFunction,Plated,1,2,PTH,Mixed*%
%TF.FilePolarity,Positive*%
%FSLAX46Y46*%
G04 Gerber Fmt 4.6, Leading zero omitted, Abs format (unit mm)*
G04 Created by KiCad (PCBNEW 9.0.2) date 2026-03-17 01:32:35*
%MOMM*%
%LPD*%
G01*
G04 APERTURE LIST*
%TA.AperFunction,ViaDrill*%
%ADD10C,0.300000*%
%TD*%
G04 aperture for slot hole*
%TA.AperFunction,ComponentDrill*%
%ADD11C,0.599999*%
%TD*%
%TA.AperFunction,ComponentDrill*%
%ADD12C,0.600000*%
%TD*%
%TA.AperFunction,ComponentDrill*%
%ADD13C,0.700000*%
%TD*%
%TA.AperFunction,ComponentDrill*%
%ADD14C,0.800000*%
%TD*%
%TA.AperFunction,ComponentDrill*%
%ADD15C,1.000000*%
%TD*%
%TA.AperFunction,ComponentDrill*%
%ADD16C,1.200000*%
%TD*%
G04 APERTURE END LIST*
D10*
X139446000Y-80137000D03*
X141097000Y-95504000D03*
X141351000Y-99568000D03*
X141859000Y-120142000D03*
X142367000Y-96774000D03*
X143002000Y-95631000D03*
X146050000Y-137795000D03*
X146558000Y-130810000D03*
X147320000Y-132461000D03*
X148082000Y-130810000D03*
X148463000Y-108966000D03*
X149225000Y-131699000D03*
X149352000Y-110109000D03*
X149987000Y-92710000D03*
X149987000Y-106807000D03*
X149987000Y-108712000D03*
X150876000Y-80645000D03*
X150876000Y-87376000D03*
X151765000Y-78994000D03*
X152019000Y-130937000D03*
X152146000Y-104267000D03*
X152527000Y-92329000D03*
X152908000Y-134366000D03*
X153162000Y-107696000D03*
X153162000Y-110109000D03*
X153543000Y-96139000D03*
X153797000Y-91821000D03*
X154305000Y-105918000D03*
X154305000Y-107315000D03*
X154559000Y-73279000D03*
X155321000Y-96012000D03*
X155956000Y-90678000D03*
X156464000Y-138938000D03*
X156591000Y-80645000D03*
X157607000Y-82931000D03*
X158877000Y-70866000D03*
X159131000Y-130302000D03*
X159893000Y-82042000D03*
X159893000Y-83947000D03*
X160020000Y-92964000D03*
X161290000Y-74041000D03*
X161671000Y-88646000D03*
X162687000Y-136906000D03*
X162814000Y-75946000D03*
X163322000Y-74041000D03*
X163576000Y-92583000D03*
X163830000Y-71374000D03*
X163830000Y-78486000D03*
X163957000Y-95758000D03*
X164084000Y-86233000D03*
X164338000Y-94488000D03*
X164719000Y-99695000D03*
X164846000Y-78486000D03*
X165100000Y-86106000D03*
X165227000Y-79502000D03*
X165481000Y-77851000D03*
X165862000Y-92837000D03*
X166497000Y-91821000D03*
X166878000Y-79883000D03*
X167132000Y-101727000D03*
X167513000Y-104267000D03*
X167640000Y-80899000D03*
X167767000Y-91567000D03*
X167894000Y-78359000D03*
X168529000Y-80137000D03*
X168783000Y-78232000D03*
X168910000Y-72263000D03*
X169037000Y-69723000D03*
X169164000Y-81407000D03*
X169418000Y-78867000D03*
X170053000Y-73533000D03*
X170180000Y-83693000D03*
X170815000Y-101092000D03*
X170942000Y-72390000D03*
X171069000Y-74676000D03*
X171323000Y-80391000D03*
X171704000Y-69850000D03*
X171958000Y-78613000D03*
X172085000Y-76073000D03*
X172974000Y-132461000D03*
X174498000Y-98298000D03*
X175260000Y-137541000D03*
X175641000Y-81661000D03*
X175641000Y-134620000D03*
X176276000Y-80264000D03*
X176403000Y-131699000D03*
X176911000Y-69850000D03*
X176911000Y-81153000D03*
X177038000Y-75311000D03*
X177800000Y-84328000D03*
X177927000Y-83439000D03*
X177927000Y-90170000D03*
X178181000Y-140589000D03*
X178689000Y-100203000D03*
X178943000Y-82423000D03*
X179070000Y-95885000D03*
X179070000Y-136525000D03*
X179705000Y-80518000D03*
X179832000Y-88900000D03*
X180340000Y-81407000D03*
X181406800Y-80568800D03*
X181483000Y-78359000D03*
X181610000Y-73025000D03*
X182118000Y-131445000D03*
X182245000Y-81153000D03*
X182372000Y-94869000D03*
X182499000Y-138811000D03*
X182880000Y-132969000D03*
X183642000Y-80772000D03*
X184150000Y-94996000D03*
X185547000Y-86995000D03*
X186563000Y-78994000D03*
X186817000Y-139065000D03*
X187198000Y-133604000D03*
X188087000Y-95758000D03*
X188214000Y-129667000D03*
X188722000Y-82296000D03*
X189230000Y-79121000D03*
X189611000Y-73533000D03*
X190119000Y-84328000D03*
X192532000Y-143510000D03*
X194437000Y-80645000D03*
X196596000Y-82677000D03*
X199263000Y-143891000D03*
D11*
%TO.C,USB1*%
X134673501Y-93724000D02*
X135273499Y-93724000D01*
X134673501Y-102364000D02*
X135273499Y-102364000D01*
X138733501Y-93724000D02*
X139633499Y-93724000D01*
X138733489Y-102364000D02*
X139633511Y-102364000D01*
D12*
%TO.C,C13*%
X143661000Y-128397000D03*
%TO.C,C12*%
X143676401Y-123444000D03*
%TO.C,C14*%
X144653000Y-132485000D03*
X144653000Y-133985000D03*
%TO.C,C22*%
X144819401Y-102489000D03*
%TO.C,C13*%
X145161000Y-128397000D03*
%TO.C,C12*%
X145176401Y-123444000D03*
%TO.C,C15*%
X145823500Y-107085000D03*
X145823500Y-108585000D03*
%TO.C,C22*%
X146319401Y-102489000D03*
%TO.C,C35*%
X148717000Y-78435000D03*
%TO.C,C36*%
X148717000Y-83985000D03*
%TO.C,C37*%
X148717000Y-89535000D03*
%TO.C,C7*%
X149137401Y-123190000D03*
%TO.C,C35*%
X150217000Y-78435000D03*
%TO.C,C36*%
X150217000Y-83985000D03*
%TO.C,C37*%
X150217000Y-89535000D03*
%TO.C,C7*%
X150637401Y-123190000D03*
%TO.C,C18*%
X151538500Y-101473000D03*
X153038500Y-101473000D03*
%TO.C,C21*%
X159385000Y-89011599D03*
X159385000Y-90511599D03*
%TO.C,C26*%
X159639000Y-110998000D03*
X159639000Y-112498000D03*
%TO.C,C23*%
X161544000Y-93242000D03*
X161544000Y-94742000D03*
%TO.C,C27*%
X165189000Y-110998000D03*
X165189000Y-112498000D03*
%TO.C,C32*%
X165227000Y-106283600D03*
X165227000Y-107783600D03*
%TO.C,C1*%
X169188000Y-142621000D03*
%TO.C,C33*%
X170561000Y-106283600D03*
X170561000Y-107783600D03*
%TO.C,C1*%
X170688000Y-142621000D03*
%TO.C,C28*%
X170739000Y-110998000D03*
X170739000Y-112498000D03*
%TO.C,C20*%
X172593000Y-97306000D03*
X172593000Y-98806000D03*
%TO.C,C24*%
X174371000Y-89154000D03*
X175871000Y-89154000D03*
%TO.C,C34*%
X176276000Y-106283600D03*
X176276000Y-107783600D03*
%TO.C,C29*%
X176289000Y-110998000D03*
X176289000Y-112498000D03*
%TO.C,C25*%
X178308000Y-78724600D03*
X178308000Y-80224600D03*
%TO.C,C19*%
X179998401Y-92583000D03*
X181498401Y-92583000D03*
%TO.C,C31*%
X181737000Y-105918000D03*
X181737000Y-107418000D03*
%TO.C,C30*%
X181839000Y-110998000D03*
X181839000Y-112498000D03*
%TO.C,C5*%
X185420000Y-127762000D03*
X185420000Y-129262000D03*
D13*
%TO.C,USB1*%
X138653500Y-95154000D03*
X138653500Y-100934000D03*
D14*
%TO.C,C11*%
X149079606Y-141859000D03*
X151579606Y-141859000D03*
%TO.C,C17*%
X156425388Y-106045000D03*
%TO.C,C8*%
X157284394Y-125095000D03*
%TO.C,C9*%
X157520000Y-133350000D03*
%TO.C,C17*%
X158425388Y-106045000D03*
%TO.C,C10*%
X158623000Y-140589000D03*
X158623000Y-143089000D03*
%TO.C,C16*%
X158711388Y-99060000D03*
%TO.C,C8*%
X159784394Y-125095000D03*
%TO.C,C9*%
X160020000Y-133350000D03*
%TO.C,C16*%
X160711388Y-99060000D03*
%TO.C,C6*%
X166947651Y-125984000D03*
%TO.C,C2*%
X168021000Y-134297394D03*
X168021000Y-136797394D03*
%TO.C,C6*%
X171947651Y-125984000D03*
%TO.C,C4*%
X177586000Y-123444000D03*
X180086000Y-123444000D03*
%TO.C,C3*%
X193910606Y-128778000D03*
X196410606Y-128778000D03*
D15*
%TO.C,S7*%
X151511000Y-68961000D03*
X154051000Y-68961000D03*
X156591000Y-68961000D03*
%TO.C,S3*%
X194945000Y-105283000D03*
%TO.C,S1*%
X195072000Y-97409000D03*
%TO.C,S2*%
X195072000Y-101600000D03*
%TO.C,S4*%
X195072000Y-109220000D03*
%TO.C,S5*%
X195199000Y-113030000D03*
%TO.C,S6*%
X195199000Y-117221000D03*
%TO.C,S3*%
X197485000Y-105283000D03*
%TO.C,S1*%
X197612000Y-97409000D03*
%TO.C,S2*%
X197612000Y-101600000D03*
%TO.C,S4*%
X197612000Y-109220000D03*
%TO.C,S5*%
X197739000Y-113030000D03*
%TO.C,S6*%
X197739000Y-117221000D03*
%TO.C,Card1*%
X198247000Y-72517000D03*
X198247000Y-80517000D03*
%TO.C,S3*%
X200025000Y-105283000D03*
%TO.C,S1*%
X200152000Y-97409000D03*
%TO.C,S2*%
X200152000Y-101600000D03*
%TO.C,S4*%
X200152000Y-109220000D03*
%TO.C,S5*%
X200279000Y-113030000D03*
%TO.C,S6*%
X200279000Y-117221000D03*
D16*
%TO.C,J1*%
X138049000Y-117983000D03*
X138049000Y-120523000D03*
M02*
