%TF.GenerationSoftware,KiCad,Pcbnew,9.0.2*%
%TF.CreationDate,2026-03-17T01:37:34+00:00*%
%TF.ProjectId,fc,66632e6b-6963-4616-945f-706362585858,rev?*%
%TF.SameCoordinates,Original*%
%TF.FileFunction,Component,L1,Top*%
%TF.FilePolarity,Positive*%
%FSLAX46Y46*%
G04 Gerber Fmt 4.6, Leading zero omitted, Abs format (unit mm)*
G04 Created by KiCad (PCBNEW 9.0.2) date 2026-03-17 01:37:34*
%MOMM*%
%LPD*%
G01*
G04 APERTURE LIST*
%TA.AperFunction,ComponentMain*%
%ADD10C,0.300000*%
%TD*%
%TA.AperFunction,ComponentOutline,Courtyard*%
%ADD11C,0.100000*%
%TD*%
%TA.AperFunction,ComponentPin*%
%ADD12P,0.360000X4X0.000000*%
%TD*%
%TA.AperFunction,ComponentPin*%
%ADD13C,0.100000*%
%TD*%
%TA.AperFunction,ComponentOutline,Footprint*%
%ADD14C,0.100000*%
%TD*%
G04 APERTURE END LIST*
D10*
%TO.C,S1*%
%TO.CFtp,PinHeader_1x03_P2.54mm_Vertical*%
%TO.CVal,Conn_01x03*%
%TO.CLbN,Connector_PinHeader_2.54mm*%
%TO.CMnt,TH*%
%TO.CRot,90*%
X195072000Y-97409000D03*
D11*
X201917000Y-95644000D02*
X201917000Y-99174000D01*
X193307000Y-99174000D01*
X193307000Y-95644000D01*
X201917000Y-95644000D01*
D12*
%TO.P,S1,1,Pin_1*%
X195072000Y-97409000D03*
D13*
%TO.P,S1,2,Pin_2*%
X197612000Y-97409000D03*
%TO.P,S1,3,Pin_3*%
X200152000Y-97409000D03*
%TD*%
D10*
%TO.C,C19*%
%TO.CFtp,CP_Radial_D4.0mm_P1.50mm*%
%TO.CVal,100nF*%
%TO.CLbN,Capacitor_THT*%
%TO.CMnt,TH*%
%TO.CRot,0*%
X179998401Y-92583000D03*
D11*
X181122226Y-90366800D02*
X181414282Y-90436400D01*
X181694453Y-90544306D01*
X181957747Y-90688595D01*
X182199452Y-90866685D01*
X182415268Y-91075405D01*
X182601339Y-91311031D01*
X182754344Y-91569353D01*
X182871551Y-91845762D01*
X182950871Y-92135328D01*
X182990894Y-92432923D01*
X182993400Y-92583000D01*
X182990894Y-92733076D01*
X182950871Y-93030671D01*
X182871551Y-93320237D01*
X182754344Y-93596646D01*
X182601339Y-93854968D01*
X182415268Y-94090594D01*
X182199452Y-94299314D01*
X181957747Y-94477404D01*
X181694453Y-94621693D01*
X181414282Y-94729599D01*
X181122226Y-94799199D01*
X180823499Y-94829251D01*
X180523434Y-94819219D01*
X180227388Y-94769282D01*
X179940625Y-94680327D01*
X179668287Y-94553949D01*
X179415227Y-94392402D01*
X179185952Y-94198561D01*
X178984559Y-93975893D01*
X178814644Y-93728369D01*
X178679232Y-93460397D01*
X178580751Y-93176785D01*
X178520947Y-92882562D01*
X178500894Y-92583000D01*
X178520947Y-92283437D01*
X178580751Y-91989214D01*
X178679232Y-91705602D01*
X178814644Y-91437630D01*
X178984559Y-91190106D01*
X179185952Y-90967438D01*
X179415227Y-90773597D01*
X179668287Y-90612050D01*
X179940625Y-90485672D01*
X180227388Y-90396717D01*
X180523434Y-90346780D01*
X180823499Y-90336748D01*
X181122226Y-90366800D01*
D12*
%TO.P,C19,1*%
X179998401Y-92583000D03*
D13*
%TO.P,C19,2*%
X181498401Y-92583000D03*
%TD*%
D10*
%TO.C,R22*%
%TO.CFtp,R_1812_4532Metric*%
%TO.CVal,10K*%
%TO.CLbN,Resistor_SMD*%
%TO.CMnt,SMD*%
%TO.CRot,0*%
X180721000Y-75184000D03*
D11*
X183666000Y-73239000D02*
X183666000Y-77129000D01*
X177776000Y-77129000D01*
X177776000Y-73239000D01*
X183666000Y-73239000D01*
D12*
%TO.P,R22,1*%
X178583500Y-75184000D03*
D13*
%TO.P,R22,2*%
X182858500Y-75184000D03*
%TD*%
D10*
%TO.C,C7*%
%TO.CFtp,CP_Radial_D4.0mm_P1.50mm*%
%TO.CVal,100nF*%
%TO.CLbN,Capacitor_THT*%
%TO.CMnt,TH*%
%TO.CRot,0*%
X149137401Y-123190000D03*
D11*
X150261226Y-120973800D02*
X150553282Y-121043400D01*
X150833453Y-121151306D01*
X151096747Y-121295595D01*
X151338452Y-121473685D01*
X151554268Y-121682405D01*
X151740339Y-121918031D01*
X151893344Y-122176353D01*
X152010551Y-122452762D01*
X152089871Y-122742328D01*
X152129894Y-123039923D01*
X152132400Y-123190000D01*
X152129894Y-123340076D01*
X152089871Y-123637671D01*
X152010551Y-123927237D01*
X151893344Y-124203646D01*
X151740339Y-124461968D01*
X151554268Y-124697594D01*
X151338452Y-124906314D01*
X151096747Y-125084404D01*
X150833453Y-125228693D01*
X150553282Y-125336599D01*
X150261226Y-125406199D01*
X149962499Y-125436251D01*
X149662434Y-125426219D01*
X149366388Y-125376282D01*
X149079625Y-125287327D01*
X148807287Y-125160949D01*
X148554227Y-124999402D01*
X148324952Y-124805561D01*
X148123559Y-124582893D01*
X147953644Y-124335369D01*
X147818232Y-124067397D01*
X147719751Y-123783785D01*
X147659947Y-123489562D01*
X147639894Y-123190000D01*
X147659947Y-122890437D01*
X147719751Y-122596214D01*
X147818232Y-122312602D01*
X147953644Y-122044630D01*
X148123559Y-121797106D01*
X148324952Y-121574438D01*
X148554227Y-121380597D01*
X148807287Y-121219050D01*
X149079625Y-121092672D01*
X149366388Y-121003717D01*
X149662434Y-120953780D01*
X149962499Y-120943748D01*
X150261226Y-120973800D01*
D12*
%TO.P,C7,1*%
X149137401Y-123190000D03*
D13*
%TO.P,C7,2*%
X150637401Y-123190000D03*
%TD*%
D10*
%TO.C,C4*%
%TO.CFtp,CP_Radial_D10.0mm_P2.50mm*%
%TO.CVal,47uF*%
%TO.CLbN,Capacitor_THT*%
%TO.CMnt,TH*%
%TO.CRot,0*%
X177586000Y-123444000D03*
D11*
X179064892Y-118201498D02*
X179520937Y-118241397D01*
X179971761Y-118320889D01*
X180413961Y-118439376D01*
X180844120Y-118595942D01*
X181259028Y-118789416D01*
X181655474Y-119018304D01*
X182030476Y-119280884D01*
X182381149Y-119575133D01*
X182704866Y-119898850D01*
X182999115Y-120249523D01*
X183261695Y-120624525D01*
X183490583Y-121020971D01*
X183684057Y-121435879D01*
X183840623Y-121866038D01*
X183959110Y-122308238D01*
X184038602Y-122759062D01*
X184078504Y-123215131D01*
X184080999Y-123444000D01*
X184078504Y-123672868D01*
X184038602Y-124128937D01*
X183959110Y-124579761D01*
X183840623Y-125021961D01*
X183684057Y-125452120D01*
X183490583Y-125867028D01*
X183261695Y-126263474D01*
X182999115Y-126638476D01*
X182704866Y-126989149D01*
X182381149Y-127312866D01*
X182030476Y-127607115D01*
X181655474Y-127869695D01*
X181259028Y-128098583D01*
X180844120Y-128292057D01*
X180413961Y-128448623D01*
X179971761Y-128567110D01*
X179520937Y-128646602D01*
X179064892Y-128686502D01*
X178607108Y-128686502D01*
X178151062Y-128646602D01*
X177700238Y-128567110D01*
X177258038Y-128448623D01*
X176827879Y-128292057D01*
X176412971Y-128098583D01*
X176016525Y-127869695D01*
X175641523Y-127607115D01*
X175290850Y-127312866D01*
X174967133Y-126989149D01*
X174672884Y-126638476D01*
X174410304Y-126263474D01*
X174181416Y-125867028D01*
X173987942Y-125452120D01*
X173831376Y-125021961D01*
X173712889Y-124579761D01*
X173633397Y-124128937D01*
X173593498Y-123672892D01*
X173593498Y-123215107D01*
X173633397Y-122759062D01*
X173712889Y-122308238D01*
X173831376Y-121866038D01*
X173987942Y-121435879D01*
X174181416Y-121020971D01*
X174410304Y-120624525D01*
X174672884Y-120249523D01*
X174967133Y-119898850D01*
X175290850Y-119575133D01*
X175641523Y-119280884D01*
X176016525Y-119018304D01*
X176412971Y-118789416D01*
X176827879Y-118595942D01*
X177258038Y-118439376D01*
X177700238Y-118320889D01*
X178151062Y-118241397D01*
X178607108Y-118201498D01*
X179064892Y-118201498D01*
D12*
%TO.P,C4,1*%
X177586000Y-123444000D03*
D13*
%TO.P,C4,2*%
X180086000Y-123444000D03*
%TD*%
D10*
%TO.C,C13*%
%TO.CFtp,CP_Radial_D4.0mm_P1.50mm*%
%TO.CVal,10uF*%
%TO.CLbN,Capacitor_THT*%
%TO.CMnt,TH*%
%TO.CRot,0*%
X143661000Y-128397000D03*
D11*
X144784825Y-126180800D02*
X145076881Y-126250400D01*
X145357052Y-126358306D01*
X145620346Y-126502595D01*
X145862051Y-126680685D01*
X146077867Y-126889405D01*
X146263938Y-127125031D01*
X146416943Y-127383353D01*
X146534150Y-127659762D01*
X146613470Y-127949328D01*
X146653493Y-128246923D01*
X146655999Y-128397000D01*
X146653493Y-128547076D01*
X146613470Y-128844671D01*
X146534150Y-129134237D01*
X146416943Y-129410646D01*
X146263938Y-129668968D01*
X146077867Y-129904594D01*
X145862051Y-130113314D01*
X145620346Y-130291404D01*
X145357052Y-130435693D01*
X145076881Y-130543599D01*
X144784825Y-130613199D01*
X144486098Y-130643251D01*
X144186033Y-130633219D01*
X143889987Y-130583282D01*
X143603224Y-130494327D01*
X143330886Y-130367949D01*
X143077826Y-130206402D01*
X142848551Y-130012561D01*
X142647158Y-129789893D01*
X142477243Y-129542369D01*
X142341831Y-129274397D01*
X142243350Y-128990785D01*
X142183546Y-128696562D01*
X142163493Y-128397000D01*
X142183546Y-128097437D01*
X142243350Y-127803214D01*
X142341831Y-127519602D01*
X142477243Y-127251630D01*
X142647158Y-127004106D01*
X142848551Y-126781438D01*
X143077826Y-126587597D01*
X143330886Y-126426050D01*
X143603224Y-126299672D01*
X143889987Y-126210717D01*
X144186033Y-126160780D01*
X144486098Y-126150748D01*
X144784825Y-126180800D01*
D12*
%TO.P,C13,1*%
X143661000Y-128397000D03*
D13*
%TO.P,C13,2*%
X145161000Y-128397000D03*
%TD*%
D10*
%TO.C,C3*%
%TO.CFtp,CP_Radial_D7.5mm_P2.50mm*%
%TO.CVal,10uF*%
%TO.CLbN,Capacitor_THT*%
%TO.CMnt,TH*%
%TO.CRot,0*%
X193910606Y-128778000D03*
D11*
X195657668Y-124811540D02*
X196050130Y-124880741D01*
X196433751Y-124988676D01*
X196804720Y-125134270D01*
X197159344Y-125316075D01*
X197494115Y-125532294D01*
X197805684Y-125780762D01*
X198090966Y-126059019D01*
X198347128Y-126364300D01*
X198571623Y-126693573D01*
X198762214Y-127043558D01*
X198917009Y-127410774D01*
X199034476Y-127791591D01*
X199113441Y-128182209D01*
X199153122Y-128578766D01*
X199155605Y-128778000D01*
X199153122Y-128977233D01*
X199113441Y-129373790D01*
X199034476Y-129764408D01*
X198917009Y-130145225D01*
X198762214Y-130512441D01*
X198571623Y-130862426D01*
X198347128Y-131191699D01*
X198090966Y-131496980D01*
X197805684Y-131775237D01*
X197494115Y-132023705D01*
X197159344Y-132239924D01*
X196804720Y-132421729D01*
X196433751Y-132567323D01*
X196050130Y-132675258D01*
X195657668Y-132744459D01*
X195260261Y-132774240D01*
X194861876Y-132764306D01*
X194466456Y-132714753D01*
X194077923Y-132626072D01*
X193700161Y-132499151D01*
X193336908Y-132335246D01*
X192991790Y-132135992D01*
X192668211Y-131903353D01*
X192369416Y-131639667D01*
X192098358Y-131347535D01*
X191857726Y-131029856D01*
X191649931Y-130689816D01*
X191477018Y-130330757D01*
X191340719Y-129956279D01*
X191242382Y-129570087D01*
X191182987Y-129176024D01*
X191163123Y-128778000D01*
X191182987Y-128379975D01*
X191242382Y-127985912D01*
X191340719Y-127599720D01*
X191477018Y-127225242D01*
X191649931Y-126866183D01*
X191857726Y-126526143D01*
X192098358Y-126208464D01*
X192369416Y-125916332D01*
X192668211Y-125652646D01*
X192991790Y-125420007D01*
X193336908Y-125220753D01*
X193700161Y-125056848D01*
X194077923Y-124929927D01*
X194466456Y-124841246D01*
X194861876Y-124791693D01*
X195260261Y-124781759D01*
X195657668Y-124811540D01*
D12*
%TO.P,C3,1*%
X193910606Y-128778000D03*
D13*
%TO.P,C3,2*%
X196410606Y-128778000D03*
%TD*%
D10*
%TO.C,L1*%
%TO.CFtp,L_0805_2012Metric_Pad1.05x1.20mm_HandSolder*%
%TO.CVal,1uH*%
%TO.CLbN,Inductor_SMD*%
%TO.CMnt,SMD*%
%TO.CRot,90*%
X174625000Y-132080000D03*
D11*
X175470000Y-130155000D02*
X175470000Y-134005000D01*
X173780000Y-134005000D01*
X173780000Y-130155000D01*
X175470000Y-130155000D01*
D12*
%TO.P,L1,1,1*%
X174625000Y-133230000D03*
D13*
%TO.P,L1,2,2*%
X174625000Y-130930000D03*
%TD*%
D10*
%TO.C,C31*%
%TO.CFtp,CP_Radial_D4.0mm_P1.50mm*%
%TO.CVal,100nF*%
%TO.CLbN,Capacitor_THT*%
%TO.CMnt,TH*%
%TO.CRot,90*%
X181737000Y-107418000D03*
D11*
X182110825Y-104451800D02*
X182402881Y-104521400D01*
X182683052Y-104629306D01*
X182946346Y-104773595D01*
X183188051Y-104951685D01*
X183403867Y-105160405D01*
X183589938Y-105396031D01*
X183742943Y-105654353D01*
X183860150Y-105930762D01*
X183939470Y-106220328D01*
X183979493Y-106517923D01*
X183981999Y-106668000D01*
X183979493Y-106818076D01*
X183939470Y-107115671D01*
X183860150Y-107405237D01*
X183742943Y-107681646D01*
X183589938Y-107939968D01*
X183403867Y-108175594D01*
X183188051Y-108384314D01*
X182946346Y-108562404D01*
X182683052Y-108706693D01*
X182402881Y-108814599D01*
X182110825Y-108884199D01*
X181812098Y-108914251D01*
X181512033Y-108904219D01*
X181215987Y-108854282D01*
X180929224Y-108765327D01*
X180656886Y-108638949D01*
X180403826Y-108477402D01*
X180174551Y-108283561D01*
X179973158Y-108060893D01*
X179803243Y-107813369D01*
X179667831Y-107545397D01*
X179569350Y-107261785D01*
X179509546Y-106967562D01*
X179489493Y-106668000D01*
X179509546Y-106368437D01*
X179569350Y-106074214D01*
X179667831Y-105790602D01*
X179803243Y-105522630D01*
X179973158Y-105275106D01*
X180174551Y-105052438D01*
X180403826Y-104858597D01*
X180656886Y-104697050D01*
X180929224Y-104570672D01*
X181215987Y-104481717D01*
X181512033Y-104431780D01*
X181812098Y-104421748D01*
X182110825Y-104451800D01*
D12*
%TO.P,C31,1*%
X181737000Y-107418000D03*
D13*
%TO.P,C31,2*%
X181737000Y-105918000D03*
%TD*%
D10*
%TO.C,X1*%
%TO.CFtp,CRYSTAL-SMD_4P-L3.2-W2.5-BL*%
%TO.CVal,X322512MSB4SI*%
%TO.CLbN,lcsc*%
%TO.CMnt,SMD*%
%TO.CRot,-90*%
X156591000Y-85217000D03*
D14*
X158041000Y-83417000D02*
X155141000Y-83417000D01*
X155141000Y-87017000D01*
X158041000Y-87017000D01*
X158041000Y-83417000D01*
D12*
%TO.P,X1,1,OSC1*%
X155741000Y-84117000D03*
D13*
%TO.P,X1,2,GND*%
X155741000Y-86317000D03*
%TO.P,X1,3,OSC2*%
X157441000Y-86317000D03*
%TO.P,X1,4,GND*%
X157441000Y-84117000D03*
%TD*%
D10*
%TO.C,R15*%
%TO.CFtp,R_2010_5025Metric*%
%TO.CVal,22.1k*%
%TO.CLbN,Resistor_SMD*%
%TO.CMnt,SMD*%
%TO.CRot,90*%
X155475500Y-112268000D03*
D11*
X157050500Y-109093000D02*
X157050500Y-115443000D01*
X153900500Y-115443000D01*
X153900500Y-109093000D01*
X157050500Y-109093000D01*
D12*
%TO.P,R15,1*%
X155475500Y-114580500D03*
D13*
%TO.P,R15,2*%
X155475500Y-109955500D03*
%TD*%
D10*
%TO.C,C29*%
%TO.CFtp,CP_Radial_D4.0mm_P1.50mm*%
%TO.CVal,10uf*%
%TO.CLbN,Capacitor_THT*%
%TO.CMnt,TH*%
%TO.CRot,90*%
X176289000Y-112498000D03*
D11*
X176662825Y-109531800D02*
X176954881Y-109601400D01*
X177235052Y-109709306D01*
X177498346Y-109853595D01*
X177740051Y-110031685D01*
X177955867Y-110240405D01*
X178141938Y-110476031D01*
X178294943Y-110734353D01*
X178412150Y-111010762D01*
X178491470Y-111300328D01*
X178531493Y-111597923D01*
X178533999Y-111748000D01*
X178531493Y-111898076D01*
X178491470Y-112195671D01*
X178412150Y-112485237D01*
X178294943Y-112761646D01*
X178141938Y-113019968D01*
X177955867Y-113255594D01*
X177740051Y-113464314D01*
X177498346Y-113642404D01*
X177235052Y-113786693D01*
X176954881Y-113894599D01*
X176662825Y-113964199D01*
X176364098Y-113994251D01*
X176064033Y-113984219D01*
X175767987Y-113934282D01*
X175481224Y-113845327D01*
X175208886Y-113718949D01*
X174955826Y-113557402D01*
X174726551Y-113363561D01*
X174525158Y-113140893D01*
X174355243Y-112893369D01*
X174219831Y-112625397D01*
X174121350Y-112341785D01*
X174061546Y-112047562D01*
X174041493Y-111748000D01*
X174061546Y-111448437D01*
X174121350Y-111154214D01*
X174219831Y-110870602D01*
X174355243Y-110602630D01*
X174525158Y-110355106D01*
X174726551Y-110132438D01*
X174955826Y-109938597D01*
X175208886Y-109777050D01*
X175481224Y-109650672D01*
X175767987Y-109561717D01*
X176064033Y-109511780D01*
X176364098Y-109501748D01*
X176662825Y-109531800D01*
D12*
%TO.P,C29,1*%
X176289000Y-112498000D03*
D13*
%TO.P,C29,2*%
X176289000Y-110998000D03*
%TD*%
D10*
%TO.C,U6*%
%TO.CFtp,SOT-23-6_L2.9-W1.6-P0.95-LS2.9-BL*%
%TO.CVal,LMR51430YFDDCR*%
%TO.CLbN,lcsc*%
%TO.CMnt,SMD*%
%TO.CRot,180*%
X152300500Y-107696000D03*
D14*
X153515500Y-109381000D02*
X153515500Y-106011000D01*
X151085500Y-106011000D01*
X151085500Y-109381000D01*
X153515500Y-109381000D01*
D12*
%TO.P,U6,1,GND*%
X153250500Y-106546000D03*
D13*
%TO.P,U6,2,SW*%
X152300500Y-106546000D03*
%TO.P,U6,3,VIN*%
X151350500Y-106546000D03*
%TO.P,U6,4,FB*%
X151350500Y-108846000D03*
%TO.P,U6,5,EN*%
X152300500Y-108846000D03*
%TO.P,U6,6,CB*%
X153250500Y-108846000D03*
%TD*%
D10*
%TO.C,U1*%
%TO.CFtp,QFN-24_L3.0-W3.0-P0.40-BL-EP*%
%TO.CVal,MPU6500*%
%TO.CLbN,lcsc*%
%TO.CMnt,SMD*%
%TO.CRot,0*%
X156210000Y-93472000D03*
D14*
X154480000Y-91742000D02*
X154480000Y-95202000D01*
X157940000Y-95202000D01*
X157940000Y-91742000D01*
X154480000Y-91742000D01*
D12*
%TO.P,U1,1,NC*%
X155210000Y-94902000D03*
D13*
%TO.P,U1,2,NC*%
X155610000Y-94902000D03*
%TO.P,U1,3,NC*%
X156010000Y-94902000D03*
%TO.P,U1,4,NC*%
X156410000Y-94902000D03*
%TO.P,U1,5,NC*%
X156810000Y-94902000D03*
%TO.P,U1,6,NC*%
X157210000Y-94902000D03*
%TO.P,U1,7,AUX_CL*%
X157640000Y-94472000D03*
%TO.P,U1,8,VDDIO*%
X157640000Y-94072000D03*
%TO.P,U1,9,SDO/AD0*%
X157640000Y-93672000D03*
%TO.P,U1,10,REGOUT*%
X157640000Y-93272000D03*
%TO.P,U1,11,FSYNC*%
X157640000Y-92872000D03*
%TO.P,U1,12,INT*%
X157640000Y-92472000D03*
%TO.P,U1,13,VDD*%
X157210000Y-92042000D03*
%TO.P,U1,14,NC*%
X156810000Y-92042000D03*
%TO.P,U1,15,NC*%
X156410000Y-92042000D03*
%TO.P,U1,16,NC*%
X156010000Y-92042000D03*
%TO.P,U1,17,NC*%
X155610000Y-92042000D03*
%TO.P,U1,18,GND*%
X155210000Y-92042000D03*
%TO.P,U1,19,RESV*%
X154780000Y-92472000D03*
%TO.P,U1,20,RESV*%
X154780000Y-92872000D03*
%TO.P,U1,21,AUX_DA*%
X154780000Y-93272000D03*
%TO.P,U1,22,nCS*%
X154780000Y-93672000D03*
%TO.P,U1,23,SCL/SCLK*%
X154780000Y-94072000D03*
%TO.P,U1,24,SDA/SDI*%
X154780000Y-94472000D03*
%TO.P,U1,25,EP*%
X156210000Y-93472000D03*
%TD*%
D10*
%TO.C,D1*%
%TO.CFtp,LED_2512_6332Metric_Pad1.52x3.35mm_HandSolder*%
%TO.CVal,LED*%
%TO.CLbN,LED_SMD*%
%TO.CMnt,SMD*%
%TO.CRot,-90*%
X175133000Y-142681500D03*
D11*
X177058000Y-138686500D02*
X177058000Y-146676500D01*
X173208000Y-146676500D01*
X173208000Y-138686500D01*
X177058000Y-138686500D01*
D12*
%TO.P,D1,1,K*%
X175133000Y-139694000D03*
D13*
%TO.P,D1,2,A*%
X175133000Y-145669000D03*
%TD*%
D10*
%TO.C,C28*%
%TO.CFtp,CP_Radial_D4.0mm_P1.50mm*%
%TO.CVal,1uf*%
%TO.CLbN,Capacitor_THT*%
%TO.CMnt,TH*%
%TO.CRot,90*%
X170739000Y-112498000D03*
D11*
X171112825Y-109531800D02*
X171404881Y-109601400D01*
X171685052Y-109709306D01*
X171948346Y-109853595D01*
X172190051Y-110031685D01*
X172405867Y-110240405D01*
X172591938Y-110476031D01*
X172744943Y-110734353D01*
X172862150Y-111010762D01*
X172941470Y-111300328D01*
X172981493Y-111597923D01*
X172983999Y-111748000D01*
X172981493Y-111898076D01*
X172941470Y-112195671D01*
X172862150Y-112485237D01*
X172744943Y-112761646D01*
X172591938Y-113019968D01*
X172405867Y-113255594D01*
X172190051Y-113464314D01*
X171948346Y-113642404D01*
X171685052Y-113786693D01*
X171404881Y-113894599D01*
X171112825Y-113964199D01*
X170814098Y-113994251D01*
X170514033Y-113984219D01*
X170217987Y-113934282D01*
X169931224Y-113845327D01*
X169658886Y-113718949D01*
X169405826Y-113557402D01*
X169176551Y-113363561D01*
X168975158Y-113140893D01*
X168805243Y-112893369D01*
X168669831Y-112625397D01*
X168571350Y-112341785D01*
X168511546Y-112047562D01*
X168491493Y-111748000D01*
X168511546Y-111448437D01*
X168571350Y-111154214D01*
X168669831Y-110870602D01*
X168805243Y-110602630D01*
X168975158Y-110355106D01*
X169176551Y-110132438D01*
X169405826Y-109938597D01*
X169658886Y-109777050D01*
X169931224Y-109650672D01*
X170217987Y-109561717D01*
X170514033Y-109511780D01*
X170814098Y-109501748D01*
X171112825Y-109531800D01*
D12*
%TO.P,C28,1*%
X170739000Y-112498000D03*
D13*
%TO.P,C28,2*%
X170739000Y-110998000D03*
%TD*%
D10*
%TO.C,S3*%
%TO.CFtp,PinHeader_1x03_P2.54mm_Vertical*%
%TO.CVal,Conn_01x03*%
%TO.CLbN,Connector_PinHeader_2.54mm*%
%TO.CMnt,TH*%
%TO.CRot,90*%
X194945000Y-105283000D03*
D11*
X201790000Y-103518000D02*
X201790000Y-107048000D01*
X193180000Y-107048000D01*
X193180000Y-103518000D01*
X201790000Y-103518000D01*
D12*
%TO.P,S3,1,Pin_1*%
X194945000Y-105283000D03*
D13*
%TO.P,S3,2,Pin_2*%
X197485000Y-105283000D03*
%TO.P,S3,3,Pin_3*%
X200025000Y-105283000D03*
%TD*%
D10*
%TO.C,C8*%
%TO.CFtp,CP_Radial_D7.5mm_P2.50mm*%
%TO.CVal,10uF*%
%TO.CLbN,Capacitor_THT*%
%TO.CMnt,TH*%
%TO.CRot,180*%
X159784394Y-125095000D03*
D11*
X159031456Y-121128540D02*
X159423918Y-121197741D01*
X159807539Y-121305676D01*
X160178508Y-121451270D01*
X160533132Y-121633075D01*
X160867903Y-121849294D01*
X161179472Y-122097762D01*
X161464754Y-122376019D01*
X161720916Y-122681300D01*
X161945411Y-123010573D01*
X162136002Y-123360558D01*
X162290797Y-123727774D01*
X162408264Y-124108591D01*
X162487229Y-124499209D01*
X162526910Y-124895766D01*
X162529393Y-125095000D01*
X162526910Y-125294233D01*
X162487229Y-125690790D01*
X162408264Y-126081408D01*
X162290797Y-126462225D01*
X162136002Y-126829441D01*
X161945411Y-127179426D01*
X161720916Y-127508699D01*
X161464754Y-127813980D01*
X161179472Y-128092237D01*
X160867903Y-128340705D01*
X160533132Y-128556924D01*
X160178508Y-128738729D01*
X159807539Y-128884323D01*
X159423918Y-128992258D01*
X159031456Y-129061459D01*
X158634049Y-129091240D01*
X158235664Y-129081306D01*
X157840244Y-129031753D01*
X157451711Y-128943072D01*
X157073949Y-128816151D01*
X156710696Y-128652246D01*
X156365578Y-128452992D01*
X156041999Y-128220353D01*
X155743204Y-127956667D01*
X155472146Y-127664535D01*
X155231514Y-127346856D01*
X155023719Y-127006816D01*
X154850806Y-126647757D01*
X154714507Y-126273279D01*
X154616170Y-125887087D01*
X154556775Y-125493024D01*
X154536911Y-125095000D01*
X154556775Y-124696975D01*
X154616170Y-124302912D01*
X154714507Y-123916720D01*
X154850806Y-123542242D01*
X155023719Y-123183183D01*
X155231514Y-122843143D01*
X155472146Y-122525464D01*
X155743204Y-122233332D01*
X156041999Y-121969646D01*
X156365578Y-121737007D01*
X156710696Y-121537753D01*
X157073949Y-121373848D01*
X157451711Y-121246927D01*
X157840244Y-121158246D01*
X158235664Y-121108693D01*
X158634049Y-121098759D01*
X159031456Y-121128540D01*
D12*
%TO.P,C8,1*%
X159784394Y-125095000D03*
D13*
%TO.P,C8,2*%
X157284394Y-125095000D03*
%TD*%
D10*
%TO.C,C17*%
%TO.CFtp,CP_Radial_D5.0mm_P2.00mm*%
%TO.CVal,22uF*%
%TO.CLbN,Capacitor_THT*%
%TO.CMnt,TH*%
%TO.CRot,0*%
X156425388Y-106045000D03*
D11*
X157591274Y-103302509D02*
X157920639Y-103342500D01*
X158242782Y-103421901D01*
X158552999Y-103539551D01*
X158846775Y-103693737D01*
X159119821Y-103882206D01*
X159368166Y-104102221D01*
X159588181Y-104350566D01*
X159776650Y-104623612D01*
X159930836Y-104917388D01*
X160048486Y-105227605D01*
X160127887Y-105549748D01*
X160167884Y-105879155D01*
X160170387Y-106045000D01*
X160167884Y-106210844D01*
X160127887Y-106540251D01*
X160048486Y-106862394D01*
X159930836Y-107172611D01*
X159776650Y-107466387D01*
X159588181Y-107739433D01*
X159368166Y-107987778D01*
X159119821Y-108207793D01*
X158846775Y-108396262D01*
X158552999Y-108550448D01*
X158242782Y-108668098D01*
X157920639Y-108747499D01*
X157591274Y-108787491D01*
X157259502Y-108787491D01*
X156930136Y-108747499D01*
X156607993Y-108668098D01*
X156297776Y-108550448D01*
X156004000Y-108396262D01*
X155730954Y-108207793D01*
X155482609Y-107987778D01*
X155262594Y-107739433D01*
X155074125Y-107466387D01*
X154919939Y-107172611D01*
X154802289Y-106862394D01*
X154722888Y-106540251D01*
X154682897Y-106210886D01*
X154682897Y-105879113D01*
X154722888Y-105549748D01*
X154802289Y-105227605D01*
X154919939Y-104917388D01*
X155074125Y-104623612D01*
X155262594Y-104350566D01*
X155482609Y-104102221D01*
X155730954Y-103882206D01*
X156004000Y-103693737D01*
X156297776Y-103539551D01*
X156607993Y-103421901D01*
X156930136Y-103342500D01*
X157259502Y-103302509D01*
X157591274Y-103302509D01*
D12*
%TO.P,C17,1*%
X156425388Y-106045000D03*
D13*
%TO.P,C17,2*%
X158425388Y-106045000D03*
%TD*%
D10*
%TO.C,R18*%
%TO.CFtp,R_1812_4532Metric*%
%TO.CVal,10K*%
%TO.CLbN,Resistor_SMD*%
%TO.CMnt,SMD*%
%TO.CRot,-90*%
X174625000Y-71882000D03*
D11*
X176570000Y-68937000D02*
X176570000Y-74827000D01*
X172680000Y-74827000D01*
X172680000Y-68937000D01*
X176570000Y-68937000D01*
D12*
%TO.P,R18,1*%
X174625000Y-69744500D03*
D13*
%TO.P,R18,2*%
X174625000Y-74019500D03*
%TD*%
D10*
%TO.C,C14*%
%TO.CFtp,CP_Radial_D4.0mm_P1.50mm*%
%TO.CVal,10uF*%
%TO.CLbN,Capacitor_THT*%
%TO.CMnt,TH*%
%TO.CRot,-90*%
X144653000Y-132485000D03*
D11*
X145026825Y-131018800D02*
X145318881Y-131088400D01*
X145599052Y-131196306D01*
X145862346Y-131340595D01*
X146104051Y-131518685D01*
X146319867Y-131727405D01*
X146505938Y-131963031D01*
X146658943Y-132221353D01*
X146776150Y-132497762D01*
X146855470Y-132787328D01*
X146895493Y-133084923D01*
X146897999Y-133235000D01*
X146895493Y-133385076D01*
X146855470Y-133682671D01*
X146776150Y-133972237D01*
X146658943Y-134248646D01*
X146505938Y-134506968D01*
X146319867Y-134742594D01*
X146104051Y-134951314D01*
X145862346Y-135129404D01*
X145599052Y-135273693D01*
X145318881Y-135381599D01*
X145026825Y-135451199D01*
X144728098Y-135481251D01*
X144428033Y-135471219D01*
X144131987Y-135421282D01*
X143845224Y-135332327D01*
X143572886Y-135205949D01*
X143319826Y-135044402D01*
X143090551Y-134850561D01*
X142889158Y-134627893D01*
X142719243Y-134380369D01*
X142583831Y-134112397D01*
X142485350Y-133828785D01*
X142425546Y-133534562D01*
X142405493Y-133235000D01*
X142425546Y-132935437D01*
X142485350Y-132641214D01*
X142583831Y-132357602D01*
X142719243Y-132089630D01*
X142889158Y-131842106D01*
X143090551Y-131619438D01*
X143319826Y-131425597D01*
X143572886Y-131264050D01*
X143845224Y-131137672D01*
X144131987Y-131048717D01*
X144428033Y-130998780D01*
X144728098Y-130988748D01*
X145026825Y-131018800D01*
D12*
%TO.P,C14,1*%
X144653000Y-132485000D03*
D13*
%TO.P,C14,2*%
X144653000Y-133985000D03*
%TD*%
D10*
%TO.C,R20*%
%TO.CFtp,R_1812_4532Metric*%
%TO.CVal,10K*%
%TO.CLbN,Resistor_SMD*%
%TO.CMnt,SMD*%
%TO.CRot,0*%
X189357000Y-87757000D03*
D11*
X192302000Y-85812000D02*
X192302000Y-89702000D01*
X186412000Y-89702000D01*
X186412000Y-85812000D01*
X192302000Y-85812000D01*
D12*
%TO.P,R20,1*%
X187219500Y-87757000D03*
D13*
%TO.P,R20,2*%
X191494500Y-87757000D03*
%TD*%
D10*
%TO.C,C15*%
%TO.CFtp,CP_Radial_D4.0mm_P1.50mm*%
%TO.CVal,100nF*%
%TO.CLbN,Capacitor_THT*%
%TO.CMnt,TH*%
%TO.CRot,-90*%
X145823500Y-107085000D03*
D11*
X146197325Y-105618800D02*
X146489381Y-105688400D01*
X146769552Y-105796306D01*
X147032846Y-105940595D01*
X147274551Y-106118685D01*
X147490367Y-106327405D01*
X147676438Y-106563031D01*
X147829443Y-106821353D01*
X147946650Y-107097762D01*
X148025970Y-107387328D01*
X148065993Y-107684923D01*
X148068499Y-107835000D01*
X148065993Y-107985076D01*
X148025970Y-108282671D01*
X147946650Y-108572237D01*
X147829443Y-108848646D01*
X147676438Y-109106968D01*
X147490367Y-109342594D01*
X147274551Y-109551314D01*
X147032846Y-109729404D01*
X146769552Y-109873693D01*
X146489381Y-109981599D01*
X146197325Y-110051199D01*
X145898598Y-110081251D01*
X145598533Y-110071219D01*
X145302487Y-110021282D01*
X145015724Y-109932327D01*
X144743386Y-109805949D01*
X144490326Y-109644402D01*
X144261051Y-109450561D01*
X144059658Y-109227893D01*
X143889743Y-108980369D01*
X143754331Y-108712397D01*
X143655850Y-108428785D01*
X143596046Y-108134562D01*
X143575993Y-107835000D01*
X143596046Y-107535437D01*
X143655850Y-107241214D01*
X143754331Y-106957602D01*
X143889743Y-106689630D01*
X144059658Y-106442106D01*
X144261051Y-106219438D01*
X144490326Y-106025597D01*
X144743386Y-105864050D01*
X145015724Y-105737672D01*
X145302487Y-105648717D01*
X145598533Y-105598780D01*
X145898598Y-105588748D01*
X146197325Y-105618800D01*
D12*
%TO.P,C15,1*%
X145823500Y-107085000D03*
D13*
%TO.P,C15,2*%
X145823500Y-108585000D03*
%TD*%
D10*
%TO.C,R17*%
%TO.CFtp,R_1812_4532Metric*%
%TO.CVal,4.7 k*%
%TO.CLbN,Resistor_SMD*%
%TO.CMnt,SMD*%
%TO.CRot,90*%
X152146000Y-96139000D03*
D11*
X154091000Y-93194000D02*
X154091000Y-99084000D01*
X150201000Y-99084000D01*
X150201000Y-93194000D01*
X154091000Y-93194000D01*
D12*
%TO.P,R17,1*%
X152146000Y-98276500D03*
D13*
%TO.P,R17,2*%
X152146000Y-94001500D03*
%TD*%
D10*
%TO.C,R13*%
%TO.CFtp,R_1812_4532Metric*%
%TO.CVal,10K*%
%TO.CLbN,Resistor_SMD*%
%TO.CMnt,SMD*%
%TO.CRot,-90*%
X151511000Y-134747000D03*
D11*
X153456000Y-131802000D02*
X153456000Y-137692000D01*
X149566000Y-137692000D01*
X149566000Y-131802000D01*
X153456000Y-131802000D01*
D12*
%TO.P,R13,1*%
X151511000Y-132609500D03*
D13*
%TO.P,R13,2*%
X151511000Y-136884500D03*
%TD*%
D10*
%TO.C,S4*%
%TO.CFtp,PinHeader_1x03_P2.54mm_Vertical*%
%TO.CVal,Conn_01x03*%
%TO.CLbN,Connector_PinHeader_2.54mm*%
%TO.CMnt,TH*%
%TO.CRot,90*%
X195072000Y-109220000D03*
D11*
X201917000Y-107455000D02*
X201917000Y-110985000D01*
X193307000Y-110985000D01*
X193307000Y-107455000D01*
X201917000Y-107455000D01*
D12*
%TO.P,S4,1,Pin_1*%
X195072000Y-109220000D03*
D13*
%TO.P,S4,2,Pin_2*%
X197612000Y-109220000D03*
%TO.P,S4,3,Pin_3*%
X200152000Y-109220000D03*
%TD*%
D10*
%TO.C,S5*%
%TO.CFtp,PinHeader_1x03_P2.54mm_Vertical*%
%TO.CVal,Conn_01x03*%
%TO.CLbN,Connector_PinHeader_2.54mm*%
%TO.CMnt,TH*%
%TO.CRot,90*%
X195199000Y-113030000D03*
D11*
X202044000Y-111265000D02*
X202044000Y-114795000D01*
X193434000Y-114795000D01*
X193434000Y-111265000D01*
X202044000Y-111265000D01*
D12*
%TO.P,S5,1,Pin_1*%
X195199000Y-113030000D03*
D13*
%TO.P,S5,2,Pin_2*%
X197739000Y-113030000D03*
%TO.P,S5,3,Pin_3*%
X200279000Y-113030000D03*
%TD*%
D10*
%TO.C,R3*%
%TO.CFtp,R_1812_4532Metric*%
%TO.CVal,5.1k*%
%TO.CLbN,Resistor_SMD*%
%TO.CMnt,SMD*%
%TO.CRot,0*%
X139700000Y-90487500D03*
D11*
X142645000Y-88542500D02*
X142645000Y-92432500D01*
X136755000Y-92432500D01*
X136755000Y-88542500D01*
X142645000Y-88542500D01*
D12*
%TO.P,R3,1*%
X137562500Y-90487500D03*
D13*
%TO.P,R3,2*%
X141837500Y-90487500D03*
%TD*%
D10*
%TO.C,C6*%
%TO.CFtp,CP_Radial_D8.0mm_P5.00mm*%
%TO.CVal,44uF*%
%TO.CLbN,Capacitor_THT*%
%TO.CMnt,TH*%
%TO.CRot,180*%
X171947651Y-125984000D03*
D11*
X169755316Y-121747679D02*
X170162751Y-121797150D01*
X170563496Y-121885712D01*
X170953824Y-122012536D01*
X171330096Y-122176445D01*
X171688794Y-122375904D01*
X172026558Y-122609046D01*
X172340249Y-122873703D01*
X172626937Y-123167404D01*
X172883933Y-123487394D01*
X173108847Y-123830696D01*
X173299580Y-124194107D01*
X173454348Y-124574229D01*
X173571704Y-124967508D01*
X173650558Y-125370284D01*
X173690172Y-125778820D01*
X173692650Y-125984000D01*
X173690172Y-126189179D01*
X173650558Y-126597715D01*
X173571704Y-127000491D01*
X173454348Y-127393770D01*
X173299580Y-127773892D01*
X173108847Y-128137303D01*
X172883933Y-128480605D01*
X172626937Y-128800595D01*
X172340249Y-129094296D01*
X172026558Y-129358953D01*
X171688794Y-129592095D01*
X171330096Y-129791554D01*
X170953824Y-129955463D01*
X170563496Y-130082287D01*
X170162751Y-130170849D01*
X169755316Y-130220320D01*
X169345012Y-130230238D01*
X168935677Y-130200509D01*
X168531105Y-130131411D01*
X168135109Y-130023592D01*
X167751357Y-129878055D01*
X167383443Y-129696159D01*
X167034812Y-129479609D01*
X166708692Y-129230411D01*
X166408166Y-128950918D01*
X166135997Y-128643703D01*
X165894763Y-128311673D01*
X165686692Y-127957896D01*
X165513747Y-127585710D01*
X165377521Y-127198546D01*
X165279303Y-126800054D01*
X165220001Y-126393935D01*
X165200172Y-125984000D01*
X165220001Y-125574064D01*
X165279303Y-125167945D01*
X165377521Y-124769453D01*
X165513747Y-124382289D01*
X165686692Y-124010103D01*
X165894763Y-123656326D01*
X166135997Y-123324296D01*
X166408166Y-123017081D01*
X166708692Y-122737588D01*
X167034812Y-122488390D01*
X167383443Y-122271840D01*
X167751357Y-122089944D01*
X168135109Y-121944407D01*
X168531105Y-121836588D01*
X168935677Y-121767490D01*
X169345012Y-121737761D01*
X169755316Y-121747679D01*
D12*
%TO.P,C6,1*%
X171947651Y-125984000D03*
D13*
%TO.P,C6,2*%
X166947651Y-125984000D03*
%TD*%
D10*
%TO.C,R10*%
%TO.CFtp,R_1812_4532Metric*%
%TO.CVal,10k*%
%TO.CLbN,Resistor_SMD*%
%TO.CMnt,SMD*%
%TO.CRot,0*%
X199644000Y-144907000D03*
D11*
X202589000Y-142962000D02*
X202589000Y-146852000D01*
X196699000Y-146852000D01*
X196699000Y-142962000D01*
X202589000Y-142962000D01*
D12*
%TO.P,R10,1*%
X197506500Y-144907000D03*
D13*
%TO.P,R10,2*%
X201781500Y-144907000D03*
%TD*%
D10*
%TO.C,C9*%
%TO.CFtp,CP_Radial_D7.5mm_P2.50mm*%
%TO.CVal,22uF*%
%TO.CLbN,Capacitor_THT*%
%TO.CMnt,TH*%
%TO.CRot,180*%
X160020000Y-133350000D03*
D11*
X159267062Y-129383540D02*
X159659524Y-129452741D01*
X160043145Y-129560676D01*
X160414114Y-129706270D01*
X160768738Y-129888075D01*
X161103509Y-130104294D01*
X161415078Y-130352762D01*
X161700360Y-130631019D01*
X161956522Y-130936300D01*
X162181017Y-131265573D01*
X162371608Y-131615558D01*
X162526403Y-131982774D01*
X162643870Y-132363591D01*
X162722835Y-132754209D01*
X162762516Y-133150766D01*
X162764999Y-133350000D01*
X162762516Y-133549233D01*
X162722835Y-133945790D01*
X162643870Y-134336408D01*
X162526403Y-134717225D01*
X162371608Y-135084441D01*
X162181017Y-135434426D01*
X161956522Y-135763699D01*
X161700360Y-136068980D01*
X161415078Y-136347237D01*
X161103509Y-136595705D01*
X160768738Y-136811924D01*
X160414114Y-136993729D01*
X160043145Y-137139323D01*
X159659524Y-137247258D01*
X159267062Y-137316459D01*
X158869655Y-137346240D01*
X158471270Y-137336306D01*
X158075850Y-137286753D01*
X157687317Y-137198072D01*
X157309555Y-137071151D01*
X156946302Y-136907246D01*
X156601184Y-136707992D01*
X156277605Y-136475353D01*
X155978810Y-136211667D01*
X155707752Y-135919535D01*
X155467120Y-135601856D01*
X155259325Y-135261816D01*
X155086412Y-134902757D01*
X154950113Y-134528279D01*
X154851776Y-134142087D01*
X154792381Y-133748024D01*
X154772517Y-133350000D01*
X154792381Y-132951975D01*
X154851776Y-132557912D01*
X154950113Y-132171720D01*
X155086412Y-131797242D01*
X155259325Y-131438183D01*
X155467120Y-131098143D01*
X155707752Y-130780464D01*
X155978810Y-130488332D01*
X156277605Y-130224646D01*
X156601184Y-129992007D01*
X156946302Y-129792753D01*
X157309555Y-129628848D01*
X157687317Y-129501927D01*
X158075850Y-129413246D01*
X158471270Y-129363693D01*
X158869655Y-129353759D01*
X159267062Y-129383540D01*
D12*
%TO.P,C9,1*%
X160020000Y-133350000D03*
D13*
%TO.P,C9,2*%
X157520000Y-133350000D03*
%TD*%
D10*
%TO.C,R14*%
%TO.CFtp,R_2816_7142Metric*%
%TO.CVal,100k*%
%TO.CLbN,Resistor_SMD*%
%TO.CMnt,SMD*%
%TO.CRot,0*%
X148363500Y-113157000D03*
D11*
X152638500Y-110682000D02*
X152638500Y-115632000D01*
X144088500Y-115632000D01*
X144088500Y-110682000D01*
X152638500Y-110682000D01*
D12*
%TO.P,R14,1*%
X145851000Y-113157000D03*
D13*
%TO.P,R14,2*%
X150876000Y-113157000D03*
%TD*%
D10*
%TO.C,R7*%
%TO.CFtp,R_1812_4532Metric*%
%TO.CVal,5.23k*%
%TO.CLbN,Resistor_SMD*%
%TO.CMnt,SMD*%
%TO.CRot,180*%
X188070304Y-118605000D03*
D11*
X191015304Y-116660000D02*
X191015304Y-120550000D01*
X185125304Y-120550000D01*
X185125304Y-116660000D01*
X191015304Y-116660000D01*
D12*
%TO.P,R7,1*%
X190207804Y-118605000D03*
D13*
%TO.P,R7,2*%
X185932804Y-118605000D03*
%TD*%
D10*
%TO.C,C11*%
%TO.CFtp,CP_Radial_D7.5mm_P2.50mm*%
%TO.CVal,22uF*%
%TO.CLbN,Capacitor_THT*%
%TO.CMnt,TH*%
%TO.CRot,0*%
X149079606Y-141859000D03*
D11*
X150826668Y-137892540D02*
X151219130Y-137961741D01*
X151602751Y-138069676D01*
X151973720Y-138215270D01*
X152328344Y-138397075D01*
X152663115Y-138613294D01*
X152974684Y-138861762D01*
X153259966Y-139140019D01*
X153516128Y-139445300D01*
X153740623Y-139774573D01*
X153931214Y-140124558D01*
X154086009Y-140491774D01*
X154203476Y-140872591D01*
X154282441Y-141263209D01*
X154322122Y-141659766D01*
X154324605Y-141859000D01*
X154322122Y-142058233D01*
X154282441Y-142454790D01*
X154203476Y-142845408D01*
X154086009Y-143226225D01*
X153931214Y-143593441D01*
X153740623Y-143943426D01*
X153516128Y-144272699D01*
X153259966Y-144577980D01*
X152974684Y-144856237D01*
X152663115Y-145104705D01*
X152328344Y-145320924D01*
X151973720Y-145502729D01*
X151602751Y-145648323D01*
X151219130Y-145756258D01*
X150826668Y-145825459D01*
X150429261Y-145855240D01*
X150030876Y-145845306D01*
X149635456Y-145795753D01*
X149246923Y-145707072D01*
X148869161Y-145580151D01*
X148505908Y-145416246D01*
X148160790Y-145216992D01*
X147837211Y-144984353D01*
X147538416Y-144720667D01*
X147267358Y-144428535D01*
X147026726Y-144110856D01*
X146818931Y-143770816D01*
X146646018Y-143411757D01*
X146509719Y-143037279D01*
X146411382Y-142651087D01*
X146351987Y-142257024D01*
X146332123Y-141859000D01*
X146351987Y-141460975D01*
X146411382Y-141066912D01*
X146509719Y-140680720D01*
X146646018Y-140306242D01*
X146818931Y-139947183D01*
X147026726Y-139607143D01*
X147267358Y-139289464D01*
X147538416Y-138997332D01*
X147837211Y-138733646D01*
X148160790Y-138501007D01*
X148505908Y-138301753D01*
X148869161Y-138137848D01*
X149246923Y-138010927D01*
X149635456Y-137922246D01*
X150030876Y-137872693D01*
X150429261Y-137862759D01*
X150826668Y-137892540D01*
D12*
%TO.P,C11,1*%
X149079606Y-141859000D03*
D13*
%TO.P,C11,2*%
X151579606Y-141859000D03*
%TD*%
D10*
%TO.C,C34*%
%TO.CFtp,CP_Radial_D4.0mm_P1.50mm*%
%TO.CVal,100nF*%
%TO.CLbN,Capacitor_THT*%
%TO.CMnt,TH*%
%TO.CRot,90*%
X176276000Y-107783600D03*
D11*
X176649825Y-104817400D02*
X176941881Y-104887000D01*
X177222052Y-104994906D01*
X177485346Y-105139195D01*
X177727051Y-105317285D01*
X177942867Y-105526005D01*
X178128938Y-105761631D01*
X178281943Y-106019953D01*
X178399150Y-106296362D01*
X178478470Y-106585928D01*
X178518493Y-106883523D01*
X178520999Y-107033600D01*
X178518493Y-107183676D01*
X178478470Y-107481271D01*
X178399150Y-107770837D01*
X178281943Y-108047246D01*
X178128938Y-108305568D01*
X177942867Y-108541194D01*
X177727051Y-108749914D01*
X177485346Y-108928004D01*
X177222052Y-109072293D01*
X176941881Y-109180199D01*
X176649825Y-109249799D01*
X176351098Y-109279851D01*
X176051033Y-109269819D01*
X175754987Y-109219882D01*
X175468224Y-109130927D01*
X175195886Y-109004549D01*
X174942826Y-108843002D01*
X174713551Y-108649161D01*
X174512158Y-108426493D01*
X174342243Y-108178969D01*
X174206831Y-107910997D01*
X174108350Y-107627385D01*
X174048546Y-107333162D01*
X174028493Y-107033600D01*
X174048546Y-106734037D01*
X174108350Y-106439814D01*
X174206831Y-106156202D01*
X174342243Y-105888230D01*
X174512158Y-105640706D01*
X174713551Y-105418038D01*
X174942826Y-105224197D01*
X175195886Y-105062650D01*
X175468224Y-104936272D01*
X175754987Y-104847317D01*
X176051033Y-104797380D01*
X176351098Y-104787348D01*
X176649825Y-104817400D01*
D12*
%TO.P,C34,1*%
X176276000Y-107783600D03*
D13*
%TO.P,C34,2*%
X176276000Y-106283600D03*
%TD*%
D10*
%TO.C,U5*%
%TO.CFtp,VFQFPN-24_L4.0-W4.0-P0.50-BL-EP2.8*%
%TO.CVal,BQ25883RGER*%
%TO.CLbN,lcsc*%
%TO.CMnt,SMD*%
%TO.CRot,0*%
X179568000Y-136017000D03*
D14*
X177218000Y-133667000D02*
X177218000Y-138367000D01*
X181918000Y-138367000D01*
X181918000Y-133667000D01*
X177218000Y-133667000D01*
D12*
%TO.P,U5,1,D-*%
X178318000Y-138017000D03*
D13*
%TO.P,U5,2,STAT*%
X178818000Y-138017000D03*
%TO.P,U5,3,~{CE}*%
X179318000Y-138017000D03*
%TO.P,U5,4,SDA*%
X179818000Y-138017000D03*
%TO.P,U5,5,SCL*%
X180318000Y-138017000D03*
%TO.P,U5,6,~{INT}*%
X180818000Y-138017000D03*
%TO.P,U5,7,TS*%
X181568000Y-137267000D03*
%TO.P,U5,8,ILIM*%
X181568000Y-136767000D03*
%TO.P,U5,9,~{PG}*%
X181568000Y-136267000D03*
%TO.P,U5,10,NC*%
X181568000Y-135767000D03*
%TO.P,U5,11,REGN*%
X181568000Y-135267000D03*
%TO.P,U5,12,BTST*%
X181568000Y-134767000D03*
%TO.P,U5,13,BAT*%
X180818000Y-134017000D03*
%TO.P,U5,14,BAT*%
X180318000Y-134017000D03*
%TO.P,U5,15,SYS*%
X179818000Y-134017000D03*
%TO.P,U5,16,SYS*%
X179318000Y-134017000D03*
%TO.P,U5,17,SW*%
X178818000Y-134017000D03*
%TO.P,U5,18,SW*%
X178328000Y-134017000D03*
%TO.P,U5,19,GND*%
X177568000Y-134767000D03*
%TO.P,U5,20,GND*%
X177568000Y-135267000D03*
%TO.P,U5,21,PMID*%
X177568000Y-135767000D03*
%TO.P,U5,22,PMID*%
X177568000Y-136267000D03*
%TO.P,U5,23,VBUS*%
X177568000Y-136767000D03*
%TO.P,U5,24,D+*%
X177568000Y-137267000D03*
%TO.P,U5,25,EP*%
X179578000Y-136017000D03*
%TD*%
D10*
%TO.C,SW2*%
%TO.CFtp,SW_Push_SPST_NO_Alps_SKRK*%
%TO.CVal,SW_Push*%
%TO.CLbN,Button_Switch_SMD*%
%TO.CMnt,SMD*%
%TO.CRot,-90*%
X137922000Y-76835000D03*
D11*
X139617000Y-74090000D02*
X139617000Y-79580000D01*
X136227000Y-79580000D01*
X136227000Y-74090000D01*
X139617000Y-74090000D01*
D12*
%TO.P,SW2,1,1*%
X137922000Y-74735000D03*
D13*
%TO.P,SW2,2,2*%
X137922000Y-78935000D03*
%TD*%
D10*
%TO.C,C22*%
%TO.CFtp,CP_Radial_D4.0mm_P1.50mm*%
%TO.CVal,0.1uF*%
%TO.CLbN,Capacitor_THT*%
%TO.CMnt,TH*%
%TO.CRot,0*%
X144819401Y-102489000D03*
D11*
X145943226Y-100272800D02*
X146235282Y-100342400D01*
X146515453Y-100450306D01*
X146778747Y-100594595D01*
X147020452Y-100772685D01*
X147236268Y-100981405D01*
X147422339Y-101217031D01*
X147575344Y-101475353D01*
X147692551Y-101751762D01*
X147771871Y-102041328D01*
X147811894Y-102338923D01*
X147814400Y-102489000D01*
X147811894Y-102639076D01*
X147771871Y-102936671D01*
X147692551Y-103226237D01*
X147575344Y-103502646D01*
X147422339Y-103760968D01*
X147236268Y-103996594D01*
X147020452Y-104205314D01*
X146778747Y-104383404D01*
X146515453Y-104527693D01*
X146235282Y-104635599D01*
X145943226Y-104705199D01*
X145644499Y-104735251D01*
X145344434Y-104725219D01*
X145048388Y-104675282D01*
X144761625Y-104586327D01*
X144489287Y-104459949D01*
X144236227Y-104298402D01*
X144006952Y-104104561D01*
X143805559Y-103881893D01*
X143635644Y-103634369D01*
X143500232Y-103366397D01*
X143401751Y-103082785D01*
X143341947Y-102788562D01*
X143321894Y-102489000D01*
X143341947Y-102189437D01*
X143401751Y-101895214D01*
X143500232Y-101611602D01*
X143635644Y-101343630D01*
X143805559Y-101096106D01*
X144006952Y-100873438D01*
X144236227Y-100679597D01*
X144489287Y-100518050D01*
X144761625Y-100391672D01*
X145048388Y-100302717D01*
X145344434Y-100252780D01*
X145644499Y-100242748D01*
X145943226Y-100272800D01*
D12*
%TO.P,C22,1*%
X144819401Y-102489000D03*
D13*
%TO.P,C22,2*%
X146319401Y-102489000D03*
%TD*%
D10*
%TO.C,C18*%
%TO.CFtp,CP_Radial_D4.0mm_P1.50mm*%
%TO.CVal,10uF*%
%TO.CLbN,Capacitor_THT*%
%TO.CMnt,TH*%
%TO.CRot,0*%
X151538500Y-101473000D03*
D11*
X152662325Y-99256800D02*
X152954381Y-99326400D01*
X153234552Y-99434306D01*
X153497846Y-99578595D01*
X153739551Y-99756685D01*
X153955367Y-99965405D01*
X154141438Y-100201031D01*
X154294443Y-100459353D01*
X154411650Y-100735762D01*
X154490970Y-101025328D01*
X154530993Y-101322923D01*
X154533499Y-101473000D01*
X154530993Y-101623076D01*
X154490970Y-101920671D01*
X154411650Y-102210237D01*
X154294443Y-102486646D01*
X154141438Y-102744968D01*
X153955367Y-102980594D01*
X153739551Y-103189314D01*
X153497846Y-103367404D01*
X153234552Y-103511693D01*
X152954381Y-103619599D01*
X152662325Y-103689199D01*
X152363598Y-103719251D01*
X152063533Y-103709219D01*
X151767487Y-103659282D01*
X151480724Y-103570327D01*
X151208386Y-103443949D01*
X150955326Y-103282402D01*
X150726051Y-103088561D01*
X150524658Y-102865893D01*
X150354743Y-102618369D01*
X150219331Y-102350397D01*
X150120850Y-102066785D01*
X150061046Y-101772562D01*
X150040993Y-101473000D01*
X150061046Y-101173437D01*
X150120850Y-100879214D01*
X150219331Y-100595602D01*
X150354743Y-100327630D01*
X150524658Y-100080106D01*
X150726051Y-99857438D01*
X150955326Y-99663597D01*
X151208386Y-99502050D01*
X151480724Y-99375672D01*
X151767487Y-99286717D01*
X152063533Y-99236780D01*
X152363598Y-99226748D01*
X152662325Y-99256800D01*
D12*
%TO.P,C18,1*%
X151538500Y-101473000D03*
D13*
%TO.P,C18,2*%
X153038500Y-101473000D03*
%TD*%
D10*
%TO.C,C2*%
%TO.CFtp,CP_Radial_D7.5mm_P2.50mm*%
%TO.CVal,10uF*%
%TO.CLbN,Capacitor_THT*%
%TO.CMnt,TH*%
%TO.CRot,90*%
X168021000Y-136797394D03*
D11*
X168518062Y-131580934D02*
X168910524Y-131650135D01*
X169294145Y-131758070D01*
X169665114Y-131903664D01*
X170019738Y-132085469D01*
X170354509Y-132301688D01*
X170666078Y-132550156D01*
X170951360Y-132828413D01*
X171207522Y-133133694D01*
X171432017Y-133462967D01*
X171622608Y-133812952D01*
X171777403Y-134180168D01*
X171894870Y-134560985D01*
X171973835Y-134951603D01*
X172013516Y-135348160D01*
X172015999Y-135547394D01*
X172013516Y-135746627D01*
X171973835Y-136143184D01*
X171894870Y-136533802D01*
X171777403Y-136914619D01*
X171622608Y-137281835D01*
X171432017Y-137631820D01*
X171207522Y-137961093D01*
X170951360Y-138266374D01*
X170666078Y-138544631D01*
X170354509Y-138793099D01*
X170019738Y-139009318D01*
X169665114Y-139191123D01*
X169294145Y-139336717D01*
X168910524Y-139444652D01*
X168518062Y-139513853D01*
X168120655Y-139543634D01*
X167722270Y-139533700D01*
X167326850Y-139484147D01*
X166938317Y-139395466D01*
X166560555Y-139268545D01*
X166197302Y-139104640D01*
X165852184Y-138905386D01*
X165528605Y-138672747D01*
X165229810Y-138409061D01*
X164958752Y-138116929D01*
X164718120Y-137799250D01*
X164510325Y-137459210D01*
X164337412Y-137100151D01*
X164201113Y-136725673D01*
X164102776Y-136339481D01*
X164043381Y-135945418D01*
X164023517Y-135547394D01*
X164043381Y-135149369D01*
X164102776Y-134755306D01*
X164201113Y-134369114D01*
X164337412Y-133994636D01*
X164510325Y-133635577D01*
X164718120Y-133295537D01*
X164958752Y-132977858D01*
X165229810Y-132685726D01*
X165528605Y-132422040D01*
X165852184Y-132189401D01*
X166197302Y-131990147D01*
X166560555Y-131826242D01*
X166938317Y-131699321D01*
X167326850Y-131610640D01*
X167722270Y-131561087D01*
X168120655Y-131551153D01*
X168518062Y-131580934D01*
D12*
%TO.P,C2,1*%
X168021000Y-136797394D03*
D13*
%TO.P,C2,2*%
X168021000Y-134297394D03*
%TD*%
D10*
%TO.C,C5*%
%TO.CFtp,CP_Radial_D4.0mm_P1.50mm*%
%TO.CVal,10uF*%
%TO.CLbN,Capacitor_THT*%
%TO.CMnt,TH*%
%TO.CRot,90*%
X185420000Y-129262000D03*
D11*
X185793825Y-126295800D02*
X186085881Y-126365400D01*
X186366052Y-126473306D01*
X186629346Y-126617595D01*
X186871051Y-126795685D01*
X187086867Y-127004405D01*
X187272938Y-127240031D01*
X187425943Y-127498353D01*
X187543150Y-127774762D01*
X187622470Y-128064328D01*
X187662493Y-128361923D01*
X187664999Y-128512000D01*
X187662493Y-128662076D01*
X187622470Y-128959671D01*
X187543150Y-129249237D01*
X187425943Y-129525646D01*
X187272938Y-129783968D01*
X187086867Y-130019594D01*
X186871051Y-130228314D01*
X186629346Y-130406404D01*
X186366052Y-130550693D01*
X186085881Y-130658599D01*
X185793825Y-130728199D01*
X185495098Y-130758251D01*
X185195033Y-130748219D01*
X184898987Y-130698282D01*
X184612224Y-130609327D01*
X184339886Y-130482949D01*
X184086826Y-130321402D01*
X183857551Y-130127561D01*
X183656158Y-129904893D01*
X183486243Y-129657369D01*
X183350831Y-129389397D01*
X183252350Y-129105785D01*
X183192546Y-128811562D01*
X183172493Y-128512000D01*
X183192546Y-128212437D01*
X183252350Y-127918214D01*
X183350831Y-127634602D01*
X183486243Y-127366630D01*
X183656158Y-127119106D01*
X183857551Y-126896438D01*
X184086826Y-126702597D01*
X184339886Y-126541050D01*
X184612224Y-126414672D01*
X184898987Y-126325717D01*
X185195033Y-126275780D01*
X185495098Y-126265748D01*
X185793825Y-126295800D01*
D12*
%TO.P,C5,1*%
X185420000Y-129262000D03*
D13*
%TO.P,C5,2*%
X185420000Y-127762000D03*
%TD*%
D10*
%TO.C,C20*%
%TO.CFtp,CP_Radial_D4.0mm_P1.50mm*%
%TO.CVal,100nF*%
%TO.CLbN,Capacitor_THT*%
%TO.CMnt,TH*%
%TO.CRot,-90*%
X172593000Y-97306000D03*
D11*
X172966825Y-95839800D02*
X173258881Y-95909400D01*
X173539052Y-96017306D01*
X173802346Y-96161595D01*
X174044051Y-96339685D01*
X174259867Y-96548405D01*
X174445938Y-96784031D01*
X174598943Y-97042353D01*
X174716150Y-97318762D01*
X174795470Y-97608328D01*
X174835493Y-97905923D01*
X174837999Y-98056000D01*
X174835493Y-98206076D01*
X174795470Y-98503671D01*
X174716150Y-98793237D01*
X174598943Y-99069646D01*
X174445938Y-99327968D01*
X174259867Y-99563594D01*
X174044051Y-99772314D01*
X173802346Y-99950404D01*
X173539052Y-100094693D01*
X173258881Y-100202599D01*
X172966825Y-100272199D01*
X172668098Y-100302251D01*
X172368033Y-100292219D01*
X172071987Y-100242282D01*
X171785224Y-100153327D01*
X171512886Y-100026949D01*
X171259826Y-99865402D01*
X171030551Y-99671561D01*
X170829158Y-99448893D01*
X170659243Y-99201369D01*
X170523831Y-98933397D01*
X170425350Y-98649785D01*
X170365546Y-98355562D01*
X170345493Y-98056000D01*
X170365546Y-97756437D01*
X170425350Y-97462214D01*
X170523831Y-97178602D01*
X170659243Y-96910630D01*
X170829158Y-96663106D01*
X171030551Y-96440438D01*
X171259826Y-96246597D01*
X171512886Y-96085050D01*
X171785224Y-95958672D01*
X172071987Y-95869717D01*
X172368033Y-95819780D01*
X172668098Y-95809748D01*
X172966825Y-95839800D01*
D12*
%TO.P,C20,1*%
X172593000Y-97306000D03*
D13*
%TO.P,C20,2*%
X172593000Y-98806000D03*
%TD*%
D10*
%TO.C,R11*%
%TO.CFtp,R_1812_4532Metric*%
%TO.CVal,10k*%
%TO.CLbN,Resistor_SMD*%
%TO.CMnt,SMD*%
%TO.CRot,0*%
X193167000Y-144907000D03*
D11*
X196112000Y-142962000D02*
X196112000Y-146852000D01*
X190222000Y-146852000D01*
X190222000Y-142962000D01*
X196112000Y-142962000D01*
D12*
%TO.P,R11,1*%
X191029500Y-144907000D03*
D13*
%TO.P,R11,2*%
X195304500Y-144907000D03*
%TD*%
D10*
%TO.C,C37*%
%TO.CFtp,CP_Radial_D4.0mm_P1.50mm*%
%TO.CVal,6.8pF*%
%TO.CLbN,Capacitor_THT*%
%TO.CMnt,TH*%
%TO.CRot,0*%
X148717000Y-89535000D03*
D11*
X149840825Y-87318800D02*
X150132881Y-87388400D01*
X150413052Y-87496306D01*
X150676346Y-87640595D01*
X150918051Y-87818685D01*
X151133867Y-88027405D01*
X151319938Y-88263031D01*
X151472943Y-88521353D01*
X151590150Y-88797762D01*
X151669470Y-89087328D01*
X151709493Y-89384923D01*
X151711999Y-89535000D01*
X151709493Y-89685076D01*
X151669470Y-89982671D01*
X151590150Y-90272237D01*
X151472943Y-90548646D01*
X151319938Y-90806968D01*
X151133867Y-91042594D01*
X150918051Y-91251314D01*
X150676346Y-91429404D01*
X150413052Y-91573693D01*
X150132881Y-91681599D01*
X149840825Y-91751199D01*
X149542098Y-91781251D01*
X149242033Y-91771219D01*
X148945987Y-91721282D01*
X148659224Y-91632327D01*
X148386886Y-91505949D01*
X148133826Y-91344402D01*
X147904551Y-91150561D01*
X147703158Y-90927893D01*
X147533243Y-90680369D01*
X147397831Y-90412397D01*
X147299350Y-90128785D01*
X147239546Y-89834562D01*
X147219493Y-89535000D01*
X147239546Y-89235437D01*
X147299350Y-88941214D01*
X147397831Y-88657602D01*
X147533243Y-88389630D01*
X147703158Y-88142106D01*
X147904551Y-87919438D01*
X148133826Y-87725597D01*
X148386886Y-87564050D01*
X148659224Y-87437672D01*
X148945987Y-87348717D01*
X149242033Y-87298780D01*
X149542098Y-87288748D01*
X149840825Y-87318800D01*
D12*
%TO.P,C37,1*%
X148717000Y-89535000D03*
D13*
%TO.P,C37,2*%
X150217000Y-89535000D03*
%TD*%
D10*
%TO.C,C35*%
%TO.CFtp,CP_Radial_D4.0mm_P1.50mm*%
%TO.CVal,100nF*%
%TO.CLbN,Capacitor_THT*%
%TO.CMnt,TH*%
%TO.CRot,0*%
X148717000Y-78435000D03*
D11*
X149840825Y-76218800D02*
X150132881Y-76288400D01*
X150413052Y-76396306D01*
X150676346Y-76540595D01*
X150918051Y-76718685D01*
X151133867Y-76927405D01*
X151319938Y-77163031D01*
X151472943Y-77421353D01*
X151590150Y-77697762D01*
X151669470Y-77987328D01*
X151709493Y-78284923D01*
X151711999Y-78435000D01*
X151709493Y-78585076D01*
X151669470Y-78882671D01*
X151590150Y-79172237D01*
X151472943Y-79448646D01*
X151319938Y-79706968D01*
X151133867Y-79942594D01*
X150918051Y-80151314D01*
X150676346Y-80329404D01*
X150413052Y-80473693D01*
X150132881Y-80581599D01*
X149840825Y-80651199D01*
X149542098Y-80681251D01*
X149242033Y-80671219D01*
X148945987Y-80621282D01*
X148659224Y-80532327D01*
X148386886Y-80405949D01*
X148133826Y-80244402D01*
X147904551Y-80050561D01*
X147703158Y-79827893D01*
X147533243Y-79580369D01*
X147397831Y-79312397D01*
X147299350Y-79028785D01*
X147239546Y-78734562D01*
X147219493Y-78435000D01*
X147239546Y-78135437D01*
X147299350Y-77841214D01*
X147397831Y-77557602D01*
X147533243Y-77289630D01*
X147703158Y-77042106D01*
X147904551Y-76819438D01*
X148133826Y-76625597D01*
X148386886Y-76464050D01*
X148659224Y-76337672D01*
X148945987Y-76248717D01*
X149242033Y-76198780D01*
X149542098Y-76188748D01*
X149840825Y-76218800D01*
D12*
%TO.P,C35,1*%
X148717000Y-78435000D03*
D13*
%TO.P,C35,2*%
X150217000Y-78435000D03*
%TD*%
D10*
%TO.C,R24*%
%TO.CFtp,R_1812_4532Metric*%
%TO.CVal,10k*%
%TO.CLbN,Resistor_SMD*%
%TO.CMnt,SMD*%
%TO.CRot,0*%
X164084000Y-72390000D03*
D11*
X167029000Y-70445000D02*
X167029000Y-74335000D01*
X161139000Y-74335000D01*
X161139000Y-70445000D01*
X167029000Y-70445000D01*
D12*
%TO.P,R24,1*%
X161946500Y-72390000D03*
D13*
%TO.P,R24,2*%
X166221500Y-72390000D03*
%TD*%
D10*
%TO.C,S7*%
%TO.CFtp,PinHeader_1x03_P2.54mm_Vertical*%
%TO.CVal,Conn_01x03*%
%TO.CLbN,Connector_PinHeader_2.54mm*%
%TO.CMnt,TH*%
%TO.CRot,90*%
X151511000Y-68961000D03*
D11*
X158356000Y-67196000D02*
X158356000Y-70726000D01*
X149746000Y-70726000D01*
X149746000Y-67196000D01*
X158356000Y-67196000D01*
D12*
%TO.P,S7,1,Pin_1*%
X151511000Y-68961000D03*
D13*
%TO.P,S7,2,Pin_2*%
X154051000Y-68961000D03*
%TO.P,S7,3,Pin_3*%
X156591000Y-68961000D03*
%TD*%
D10*
%TO.C,C33*%
%TO.CFtp,CP_Radial_D4.0mm_P1.50mm*%
%TO.CVal,100nF*%
%TO.CLbN,Capacitor_THT*%
%TO.CMnt,TH*%
%TO.CRot,90*%
X170561000Y-107783600D03*
D11*
X170934825Y-104817400D02*
X171226881Y-104887000D01*
X171507052Y-104994906D01*
X171770346Y-105139195D01*
X172012051Y-105317285D01*
X172227867Y-105526005D01*
X172413938Y-105761631D01*
X172566943Y-106019953D01*
X172684150Y-106296362D01*
X172763470Y-106585928D01*
X172803493Y-106883523D01*
X172805999Y-107033600D01*
X172803493Y-107183676D01*
X172763470Y-107481271D01*
X172684150Y-107770837D01*
X172566943Y-108047246D01*
X172413938Y-108305568D01*
X172227867Y-108541194D01*
X172012051Y-108749914D01*
X171770346Y-108928004D01*
X171507052Y-109072293D01*
X171226881Y-109180199D01*
X170934825Y-109249799D01*
X170636098Y-109279851D01*
X170336033Y-109269819D01*
X170039987Y-109219882D01*
X169753224Y-109130927D01*
X169480886Y-109004549D01*
X169227826Y-108843002D01*
X168998551Y-108649161D01*
X168797158Y-108426493D01*
X168627243Y-108178969D01*
X168491831Y-107910997D01*
X168393350Y-107627385D01*
X168333546Y-107333162D01*
X168313493Y-107033600D01*
X168333546Y-106734037D01*
X168393350Y-106439814D01*
X168491831Y-106156202D01*
X168627243Y-105888230D01*
X168797158Y-105640706D01*
X168998551Y-105418038D01*
X169227826Y-105224197D01*
X169480886Y-105062650D01*
X169753224Y-104936272D01*
X170039987Y-104847317D01*
X170336033Y-104797380D01*
X170636098Y-104787348D01*
X170934825Y-104817400D01*
D12*
%TO.P,C33,1*%
X170561000Y-107783600D03*
D13*
%TO.P,C33,2*%
X170561000Y-106283600D03*
%TD*%
D10*
%TO.C,C1*%
%TO.CFtp,CP_Radial_D4.0mm_P1.50mm*%
%TO.CVal,1uF*%
%TO.CLbN,Capacitor_THT*%
%TO.CMnt,TH*%
%TO.CRot,180*%
X170688000Y-142621000D03*
D11*
X170311825Y-140404800D02*
X170603881Y-140474400D01*
X170884052Y-140582306D01*
X171147346Y-140726595D01*
X171389051Y-140904685D01*
X171604867Y-141113405D01*
X171790938Y-141349031D01*
X171943943Y-141607353D01*
X172061150Y-141883762D01*
X172140470Y-142173328D01*
X172180493Y-142470923D01*
X172182999Y-142621000D01*
X172180493Y-142771076D01*
X172140470Y-143068671D01*
X172061150Y-143358237D01*
X171943943Y-143634646D01*
X171790938Y-143892968D01*
X171604867Y-144128594D01*
X171389051Y-144337314D01*
X171147346Y-144515404D01*
X170884052Y-144659693D01*
X170603881Y-144767599D01*
X170311825Y-144837199D01*
X170013098Y-144867251D01*
X169713033Y-144857219D01*
X169416987Y-144807282D01*
X169130224Y-144718327D01*
X168857886Y-144591949D01*
X168604826Y-144430402D01*
X168375551Y-144236561D01*
X168174158Y-144013893D01*
X168004243Y-143766369D01*
X167868831Y-143498397D01*
X167770350Y-143214785D01*
X167710546Y-142920562D01*
X167690493Y-142621000D01*
X167710546Y-142321437D01*
X167770350Y-142027214D01*
X167868831Y-141743602D01*
X168004243Y-141475630D01*
X168174158Y-141228106D01*
X168375551Y-141005438D01*
X168604826Y-140811597D01*
X168857886Y-140650050D01*
X169130224Y-140523672D01*
X169416987Y-140434717D01*
X169713033Y-140384780D01*
X170013098Y-140374748D01*
X170311825Y-140404800D01*
D12*
%TO.P,C1,1*%
X170688000Y-142621000D03*
D13*
%TO.P,C1,2*%
X169188000Y-142621000D03*
%TD*%
D10*
%TO.C,R9*%
%TO.CFtp,R_1812_4532Metric*%
%TO.CVal,10k*%
%TO.CLbN,Resistor_SMD*%
%TO.CMnt,SMD*%
%TO.CRot,0*%
X180594000Y-144907000D03*
D11*
X183539000Y-142962000D02*
X183539000Y-146852000D01*
X177649000Y-146852000D01*
X177649000Y-142962000D01*
X183539000Y-142962000D01*
D12*
%TO.P,R9,1*%
X178456500Y-144907000D03*
D13*
%TO.P,R9,2*%
X182731500Y-144907000D03*
%TD*%
D10*
%TO.C,C16*%
%TO.CFtp,CP_Radial_D5.0mm_P2.00mm*%
%TO.CVal,22uF*%
%TO.CLbN,Capacitor_THT*%
%TO.CMnt,TH*%
%TO.CRot,0*%
X158711388Y-99060000D03*
D11*
X159877274Y-96317509D02*
X160206639Y-96357500D01*
X160528782Y-96436901D01*
X160838999Y-96554551D01*
X161132775Y-96708737D01*
X161405821Y-96897206D01*
X161654166Y-97117221D01*
X161874181Y-97365566D01*
X162062650Y-97638612D01*
X162216836Y-97932388D01*
X162334486Y-98242605D01*
X162413887Y-98564748D01*
X162453884Y-98894155D01*
X162456387Y-99060000D01*
X162453884Y-99225844D01*
X162413887Y-99555251D01*
X162334486Y-99877394D01*
X162216836Y-100187611D01*
X162062650Y-100481387D01*
X161874181Y-100754433D01*
X161654166Y-101002778D01*
X161405821Y-101222793D01*
X161132775Y-101411262D01*
X160838999Y-101565448D01*
X160528782Y-101683098D01*
X160206639Y-101762499D01*
X159877274Y-101802491D01*
X159545502Y-101802491D01*
X159216136Y-101762499D01*
X158893993Y-101683098D01*
X158583776Y-101565448D01*
X158290000Y-101411262D01*
X158016954Y-101222793D01*
X157768609Y-101002778D01*
X157548594Y-100754433D01*
X157360125Y-100481387D01*
X157205939Y-100187611D01*
X157088289Y-99877394D01*
X157008888Y-99555251D01*
X156968897Y-99225886D01*
X156968897Y-98894113D01*
X157008888Y-98564748D01*
X157088289Y-98242605D01*
X157205939Y-97932388D01*
X157360125Y-97638612D01*
X157548594Y-97365566D01*
X157768609Y-97117221D01*
X158016954Y-96897206D01*
X158290000Y-96708737D01*
X158583776Y-96554551D01*
X158893993Y-96436901D01*
X159216136Y-96357500D01*
X159545502Y-96317509D01*
X159877274Y-96317509D01*
D12*
%TO.P,C16,1*%
X158711388Y-99060000D03*
D13*
%TO.P,C16,2*%
X160711388Y-99060000D03*
%TD*%
D10*
%TO.C,U4*%
%TO.CFtp,LGA-10_L2.0-W2.0-P0.50-TL_BMP580*%
%TO.CVal,BMP580*%
%TO.CLbN,lcsc*%
%TO.CMnt,TH*%
%TO.CRot,0*%
X177546000Y-97899000D03*
D14*
X176616000Y-96969000D02*
X176616000Y-98829000D01*
X178476000Y-98829000D01*
X178476000Y-96969000D01*
X176616000Y-96969000D01*
D12*
%TO.P,U4,1,VDDIO*%
X176766000Y-97649000D03*
D13*
%TO.P,U4,2,SCK*%
X176766000Y-98149000D03*
%TO.P,U4,3,VSS*%
X177046000Y-98679000D03*
%TO.P,U4,4,SDI*%
X177546000Y-98679000D03*
%TO.P,U4,5,SDO*%
X178046000Y-98679000D03*
%TO.P,U4,6,CSB*%
X178326000Y-98149000D03*
%TO.P,U4,7,INT*%
X178326000Y-97649000D03*
%TO.P,U4,8,VSS*%
X178046000Y-97119000D03*
%TO.P,U4,9,VSS*%
X177546000Y-97119000D03*
%TO.P,U4,10,VDD*%
X177046000Y-97119000D03*
%TD*%
D10*
%TO.C,C12*%
%TO.CFtp,CP_Radial_D4.0mm_P1.50mm*%
%TO.CVal,10uF*%
%TO.CLbN,Capacitor_THT*%
%TO.CMnt,TH*%
%TO.CRot,0*%
X143676401Y-123444000D03*
D11*
X144800226Y-121227800D02*
X145092282Y-121297400D01*
X145372453Y-121405306D01*
X145635747Y-121549595D01*
X145877452Y-121727685D01*
X146093268Y-121936405D01*
X146279339Y-122172031D01*
X146432344Y-122430353D01*
X146549551Y-122706762D01*
X146628871Y-122996328D01*
X146668894Y-123293923D01*
X146671400Y-123444000D01*
X146668894Y-123594076D01*
X146628871Y-123891671D01*
X146549551Y-124181237D01*
X146432344Y-124457646D01*
X146279339Y-124715968D01*
X146093268Y-124951594D01*
X145877452Y-125160314D01*
X145635747Y-125338404D01*
X145372453Y-125482693D01*
X145092282Y-125590599D01*
X144800226Y-125660199D01*
X144501499Y-125690251D01*
X144201434Y-125680219D01*
X143905388Y-125630282D01*
X143618625Y-125541327D01*
X143346287Y-125414949D01*
X143093227Y-125253402D01*
X142863952Y-125059561D01*
X142662559Y-124836893D01*
X142492644Y-124589369D01*
X142357232Y-124321397D01*
X142258751Y-124037785D01*
X142198947Y-123743562D01*
X142178894Y-123444000D01*
X142198947Y-123144437D01*
X142258751Y-122850214D01*
X142357232Y-122566602D01*
X142492644Y-122298630D01*
X142662559Y-122051106D01*
X142863952Y-121828438D01*
X143093227Y-121634597D01*
X143346287Y-121473050D01*
X143618625Y-121346672D01*
X143905388Y-121257717D01*
X144201434Y-121207780D01*
X144501499Y-121197748D01*
X144800226Y-121227800D01*
D12*
%TO.P,C12,1*%
X143676401Y-123444000D03*
D13*
%TO.P,C12,2*%
X145176401Y-123444000D03*
%TD*%
D10*
%TO.C,S6*%
%TO.CFtp,PinHeader_1x03_P2.54mm_Vertical*%
%TO.CVal,Conn_01x03*%
%TO.CLbN,Connector_PinHeader_2.54mm*%
%TO.CMnt,TH*%
%TO.CRot,90*%
X195199000Y-117221000D03*
D11*
X202044000Y-115456000D02*
X202044000Y-118986000D01*
X193434000Y-118986000D01*
X193434000Y-115456000D01*
X202044000Y-115456000D01*
D12*
%TO.P,S6,1,Pin_1*%
X195199000Y-117221000D03*
D13*
%TO.P,S6,2,Pin_2*%
X197739000Y-117221000D03*
%TO.P,S6,3,Pin_3*%
X200279000Y-117221000D03*
%TD*%
D10*
%TO.C,C32*%
%TO.CFtp,CP_Radial_D4.0mm_P1.50mm*%
%TO.CVal,100nF*%
%TO.CLbN,Capacitor_THT*%
%TO.CMnt,TH*%
%TO.CRot,90*%
X165227000Y-107783600D03*
D11*
X165600825Y-104817400D02*
X165892881Y-104887000D01*
X166173052Y-104994906D01*
X166436346Y-105139195D01*
X166678051Y-105317285D01*
X166893867Y-105526005D01*
X167079938Y-105761631D01*
X167232943Y-106019953D01*
X167350150Y-106296362D01*
X167429470Y-106585928D01*
X167469493Y-106883523D01*
X167471999Y-107033600D01*
X167469493Y-107183676D01*
X167429470Y-107481271D01*
X167350150Y-107770837D01*
X167232943Y-108047246D01*
X167079938Y-108305568D01*
X166893867Y-108541194D01*
X166678051Y-108749914D01*
X166436346Y-108928004D01*
X166173052Y-109072293D01*
X165892881Y-109180199D01*
X165600825Y-109249799D01*
X165302098Y-109279851D01*
X165002033Y-109269819D01*
X164705987Y-109219882D01*
X164419224Y-109130927D01*
X164146886Y-109004549D01*
X163893826Y-108843002D01*
X163664551Y-108649161D01*
X163463158Y-108426493D01*
X163293243Y-108178969D01*
X163157831Y-107910997D01*
X163059350Y-107627385D01*
X162999546Y-107333162D01*
X162979493Y-107033600D01*
X162999546Y-106734037D01*
X163059350Y-106439814D01*
X163157831Y-106156202D01*
X163293243Y-105888230D01*
X163463158Y-105640706D01*
X163664551Y-105418038D01*
X163893826Y-105224197D01*
X164146886Y-105062650D01*
X164419224Y-104936272D01*
X164705987Y-104847317D01*
X165002033Y-104797380D01*
X165302098Y-104787348D01*
X165600825Y-104817400D01*
D12*
%TO.P,C32,1*%
X165227000Y-107783600D03*
D13*
%TO.P,C32,2*%
X165227000Y-106283600D03*
%TD*%
D10*
%TO.C,R16*%
%TO.CFtp,R_1812_4532Metric*%
%TO.CVal,4.7 k*%
%TO.CLbN,Resistor_SMD*%
%TO.CMnt,SMD*%
%TO.CRot,90*%
X147828000Y-96774000D03*
D11*
X149773000Y-93829000D02*
X149773000Y-99719000D01*
X145883000Y-99719000D01*
X145883000Y-93829000D01*
X149773000Y-93829000D01*
D12*
%TO.P,R16,1*%
X147828000Y-98911500D03*
D13*
%TO.P,R16,2*%
X147828000Y-94636500D03*
%TD*%
D10*
%TO.C,U7*%
%TO.CFtp,LQFP-64_10x10mm_P0.5mm*%
%TO.CVal,STM32F405RGTx*%
%TO.CLbN,Package_QFP*%
%TO.CMnt,SMD*%
%TO.CRot,0*%
X167640000Y-82169000D03*
D11*
X171785000Y-75474000D02*
X171785000Y-76924000D01*
X172885000Y-76924000D01*
X172885000Y-78024000D01*
X174335000Y-78024000D01*
X174335000Y-86314000D01*
X172885000Y-86314000D01*
X172885000Y-87414000D01*
X171785000Y-87414000D01*
X171785000Y-88864000D01*
X163495000Y-88864000D01*
X163495000Y-87414000D01*
X162395000Y-87414000D01*
X162395000Y-86314000D01*
X160945000Y-86314000D01*
X160945000Y-78024000D01*
X162395000Y-78024000D01*
X162395000Y-76924000D01*
X163495000Y-76924000D01*
X163495000Y-75474000D01*
X171785000Y-75474000D01*
D12*
%TO.P,U7,1,VBAT*%
X161965000Y-78419000D03*
D13*
%TO.P,U7,2,PC13*%
X161965000Y-78919000D03*
%TO.P,U7,3,PC14*%
X161965000Y-79419000D03*
%TO.P,U7,4,PC15*%
X161965000Y-79919000D03*
%TO.P,U7,5,PH0*%
X161965000Y-80419000D03*
%TO.P,U7,6,PH1*%
X161965000Y-80919000D03*
%TO.P,U7,7,NRST*%
X161965000Y-81419000D03*
%TO.P,U7,8,PC0*%
X161965000Y-81919000D03*
%TO.P,U7,9,PC1*%
X161965000Y-82419000D03*
%TO.P,U7,10,PC2*%
X161965000Y-82919000D03*
%TO.P,U7,11,PC3*%
X161965000Y-83419000D03*
%TO.P,U7,12,VSSA*%
X161965000Y-83919000D03*
%TO.P,U7,13,VDDA*%
X161965000Y-84419000D03*
%TO.P,U7,14,PA0*%
X161965000Y-84919000D03*
%TO.P,U7,15,PA1*%
X161965000Y-85419000D03*
%TO.P,U7,16,PA2*%
X161965000Y-85919000D03*
%TO.P,U7,17,PA3*%
X163890000Y-87844000D03*
%TO.P,U7,18,VSS*%
X164390000Y-87844000D03*
%TO.P,U7,19,VDD*%
X164890000Y-87844000D03*
%TO.P,U7,20,PA4*%
X165390000Y-87844000D03*
%TO.P,U7,21,PA5*%
X165890000Y-87844000D03*
%TO.P,U7,22,PA6*%
X166390000Y-87844000D03*
%TO.P,U7,23,PA7*%
X166890000Y-87844000D03*
%TO.P,U7,24,PC4*%
X167390000Y-87844000D03*
%TO.P,U7,25,PC5*%
X167890000Y-87844000D03*
%TO.P,U7,26,PB0*%
X168390000Y-87844000D03*
%TO.P,U7,27,PB1*%
X168890000Y-87844000D03*
%TO.P,U7,28,PB2*%
X169390000Y-87844000D03*
%TO.P,U7,29,PB10*%
X169890000Y-87844000D03*
%TO.P,U7,30,PB11*%
X170390000Y-87844000D03*
%TO.P,U7,31,VCAP_1*%
X170890000Y-87844000D03*
%TO.P,U7,32,VDD*%
X171390000Y-87844000D03*
%TO.P,U7,33,PB12*%
X173315000Y-85919000D03*
%TO.P,U7,34,PB13*%
X173315000Y-85419000D03*
%TO.P,U7,35,PB14*%
X173315000Y-84919000D03*
%TO.P,U7,36,PB15*%
X173315000Y-84419000D03*
%TO.P,U7,37,PC6*%
X173315000Y-83919000D03*
%TO.P,U7,38,PC7*%
X173315000Y-83419000D03*
%TO.P,U7,39,PC8*%
X173315000Y-82919000D03*
%TO.P,U7,40,PC9*%
X173315000Y-82419000D03*
%TO.P,U7,41,PA8*%
X173315000Y-81919000D03*
%TO.P,U7,42,PA9*%
X173315000Y-81419000D03*
%TO.P,U7,43,PA10*%
X173315000Y-80919000D03*
%TO.P,U7,44,PA11*%
X173315000Y-80419000D03*
%TO.P,U7,45,PA12*%
X173315000Y-79919000D03*
%TO.P,U7,46,PA13*%
X173315000Y-79419000D03*
%TO.P,U7,47,VCAP_2*%
X173315000Y-78919000D03*
%TO.P,U7,48,VDD*%
X173315000Y-78419000D03*
%TO.P,U7,49,PA14*%
X171390000Y-76494000D03*
%TO.P,U7,50,PA15*%
X170890000Y-76494000D03*
%TO.P,U7,51,PC10*%
X170390000Y-76494000D03*
%TO.P,U7,52,PC11*%
X169890000Y-76494000D03*
%TO.P,U7,53,PC12*%
X169390000Y-76494000D03*
%TO.P,U7,54,PD2*%
X168890000Y-76494000D03*
%TO.P,U7,55,PB3*%
X168390000Y-76494000D03*
%TO.P,U7,56,PB4*%
X167890000Y-76494000D03*
%TO.P,U7,57,PB5*%
X167390000Y-76494000D03*
%TO.P,U7,58,PB6*%
X166890000Y-76494000D03*
%TO.P,U7,59,PB7*%
X166390000Y-76494000D03*
%TO.P,U7,60,BOOT0*%
X165890000Y-76494000D03*
%TO.P,U7,61,PB8*%
X165390000Y-76494000D03*
%TO.P,U7,62,PB9*%
X164890000Y-76494000D03*
%TO.P,U7,63,VSS*%
X164390000Y-76494000D03*
%TO.P,U7,64,VDD*%
X163890000Y-76494000D03*
%TD*%
D10*
%TO.C,C25*%
%TO.CFtp,CP_Radial_D4.0mm_P1.50mm*%
%TO.CVal,2.2uF*%
%TO.CLbN,Capacitor_THT*%
%TO.CMnt,TH*%
%TO.CRot,90*%
X178308000Y-80224600D03*
D11*
X178681825Y-77258400D02*
X178973881Y-77328000D01*
X179254052Y-77435906D01*
X179517346Y-77580195D01*
X179759051Y-77758285D01*
X179974867Y-77967005D01*
X180160938Y-78202631D01*
X180313943Y-78460953D01*
X180431150Y-78737362D01*
X180510470Y-79026928D01*
X180550493Y-79324523D01*
X180552999Y-79474600D01*
X180550493Y-79624676D01*
X180510470Y-79922271D01*
X180431150Y-80211837D01*
X180313943Y-80488246D01*
X180160938Y-80746568D01*
X179974867Y-80982194D01*
X179759051Y-81190914D01*
X179517346Y-81369004D01*
X179254052Y-81513293D01*
X178973881Y-81621199D01*
X178681825Y-81690799D01*
X178383098Y-81720851D01*
X178083033Y-81710819D01*
X177786987Y-81660882D01*
X177500224Y-81571927D01*
X177227886Y-81445549D01*
X176974826Y-81284002D01*
X176745551Y-81090161D01*
X176544158Y-80867493D01*
X176374243Y-80619969D01*
X176238831Y-80351997D01*
X176140350Y-80068385D01*
X176080546Y-79774162D01*
X176060493Y-79474600D01*
X176080546Y-79175037D01*
X176140350Y-78880814D01*
X176238831Y-78597202D01*
X176374243Y-78329230D01*
X176544158Y-78081706D01*
X176745551Y-77859038D01*
X176974826Y-77665197D01*
X177227886Y-77503650D01*
X177500224Y-77377272D01*
X177786987Y-77288317D01*
X178083033Y-77238380D01*
X178383098Y-77228348D01*
X178681825Y-77258400D01*
D12*
%TO.P,C25,1*%
X178308000Y-80224600D03*
D13*
%TO.P,C25,2*%
X178308000Y-78724600D03*
%TD*%
D10*
%TO.C,USB1*%
%TO.CFtp,USB-C-SMD_TYPE-C-6PIN-2MD-073*%
%TO.CVal,TYPE-C 16PIN 2MD(073)*%
%TO.CLbN,lcsc*%
%TO.CMnt,SMD*%
%TO.CRot,-90*%
X137353500Y-98044000D03*
D14*
X140283500Y-93124000D02*
X134073500Y-93124000D01*
X134073500Y-102964000D01*
X140283500Y-102964000D01*
X140283500Y-93124000D01*
D12*
%TO.P,USB1,1,GND*%
X139733500Y-94844000D03*
D13*
%TO.P,USB1,*%
X138653500Y-95154000D03*
X138653500Y-100934000D03*
%TO.P,USB1,2,VBUS*%
X139733500Y-95644000D03*
%TO.P,USB1,3,SBU2*%
X139733500Y-96294000D03*
%TO.P,USB1,4,CC1*%
X139733500Y-96794000D03*
%TO.P,USB1,5,DN2*%
X139733500Y-97294000D03*
%TO.P,USB1,6,DP1*%
X139733500Y-97794000D03*
%TO.P,USB1,7,DN1*%
X139733500Y-98294000D03*
%TO.P,USB1,8,DP2*%
X139733500Y-98794000D03*
%TO.P,USB1,9,SBU1*%
X139733500Y-99294000D03*
%TO.P,USB1,10,CC2*%
X139733500Y-99794000D03*
%TO.P,USB1,11,VBUS*%
X139733500Y-100444000D03*
%TO.P,USB1,12,GND*%
X139733500Y-101244000D03*
%TO.P,USB1,13,SHELL*%
X139183500Y-93724000D03*
X134973500Y-93724000D03*
%TO.P,USB1,14,SHELL*%
X139183500Y-102364000D03*
X134973500Y-102364000D03*
%TD*%
D10*
%TO.C,RR1*%
%TO.CFtp,R_1812_4532Metric*%
%TO.CVal,383*%
%TO.CLbN,Resistor_SMD*%
%TO.CMnt,SMD*%
%TO.CRot,0*%
X193548000Y-136906000D03*
D11*
X196493000Y-134961000D02*
X196493000Y-138851000D01*
X190603000Y-138851000D01*
X190603000Y-134961000D01*
X196493000Y-134961000D01*
D12*
%TO.P,RR1,1*%
X191410500Y-136906000D03*
D13*
%TO.P,RR1,2*%
X195685500Y-136906000D03*
%TD*%
D10*
%TO.C,U3*%
%TO.CFtp,VQFN-15_L3.0-W2.5-P0.50-BL*%
%TO.CVal,TPS63070RNMR*%
%TO.CLbN,lcsc*%
%TO.CMnt,SMD*%
%TO.CRot,0*%
X149937811Y-128597000D03*
D14*
X148237811Y-126962000D02*
X148237811Y-129857000D01*
X151637811Y-129857000D01*
X151637811Y-126962000D01*
X148237811Y-126962000D01*
D12*
%TO.P,U3,1,PS/SYNC*%
X149187811Y-129557000D03*
D13*
%TO.P,U3,2,PG*%
X149687811Y-129557000D03*
%TO.P,U3,3,Vaux*%
X150187811Y-129557000D03*
%TO.P,U3,4,GND*%
X150687811Y-129557000D03*
%TO.P,U3,5,FB*%
X151337811Y-129137000D03*
%TO.P,U3,6,FB2*%
X151337811Y-128637000D03*
%TO.P,U3,7,Vout*%
X151167811Y-127887000D03*
X151337811Y-127637000D03*
X151337811Y-128137000D03*
%TO.P,U3,9,L2*%
X150437811Y-127637000D03*
%TO.P,U3,10,PGND*%
X149937811Y-127867000D03*
%TO.P,U3,11,L1*%
X149437811Y-127637000D03*
%TO.P,U3,12,Vin*%
X148537811Y-127637000D03*
X148537811Y-128137000D03*
X148707811Y-127887000D03*
%TO.P,U3,14,EN*%
X148537811Y-128637000D03*
%TO.P,U3,15,Vsel*%
X148537811Y-129137000D03*
%TD*%
D10*
%TO.C,C10*%
%TO.CFtp,CP_Radial_D7.5mm_P2.50mm*%
%TO.CVal,22uF*%
%TO.CLbN,Capacitor_THT*%
%TO.CMnt,TH*%
%TO.CRot,90*%
X158623000Y-143089000D03*
D11*
X159120062Y-137872540D02*
X159512524Y-137941741D01*
X159896145Y-138049676D01*
X160267114Y-138195270D01*
X160621738Y-138377075D01*
X160956509Y-138593294D01*
X161268078Y-138841762D01*
X161553360Y-139120019D01*
X161809522Y-139425300D01*
X162034017Y-139754573D01*
X162224608Y-140104558D01*
X162379403Y-140471774D01*
X162496870Y-140852591D01*
X162575835Y-141243209D01*
X162615516Y-141639766D01*
X162617999Y-141839000D01*
X162615516Y-142038233D01*
X162575835Y-142434790D01*
X162496870Y-142825408D01*
X162379403Y-143206225D01*
X162224608Y-143573441D01*
X162034017Y-143923426D01*
X161809522Y-144252699D01*
X161553360Y-144557980D01*
X161268078Y-144836237D01*
X160956509Y-145084705D01*
X160621738Y-145300924D01*
X160267114Y-145482729D01*
X159896145Y-145628323D01*
X159512524Y-145736258D01*
X159120062Y-145805459D01*
X158722655Y-145835240D01*
X158324270Y-145825306D01*
X157928850Y-145775753D01*
X157540317Y-145687072D01*
X157162555Y-145560151D01*
X156799302Y-145396246D01*
X156454184Y-145196992D01*
X156130605Y-144964353D01*
X155831810Y-144700667D01*
X155560752Y-144408535D01*
X155320120Y-144090856D01*
X155112325Y-143750816D01*
X154939412Y-143391757D01*
X154803113Y-143017279D01*
X154704776Y-142631087D01*
X154645381Y-142237024D01*
X154625517Y-141839000D01*
X154645381Y-141440975D01*
X154704776Y-141046912D01*
X154803113Y-140660720D01*
X154939412Y-140286242D01*
X155112325Y-139927183D01*
X155320120Y-139587143D01*
X155560752Y-139269464D01*
X155831810Y-138977332D01*
X156130605Y-138713646D01*
X156454184Y-138481007D01*
X156799302Y-138281753D01*
X157162555Y-138117848D01*
X157540317Y-137990927D01*
X157928850Y-137902246D01*
X158324270Y-137852693D01*
X158722655Y-137842759D01*
X159120062Y-137872540D01*
D12*
%TO.P,C10,1*%
X158623000Y-143089000D03*
D13*
%TO.P,C10,2*%
X158623000Y-140589000D03*
%TD*%
D10*
%TO.C,C27*%
%TO.CFtp,CP_Radial_D4.0mm_P1.50mm*%
%TO.CVal,1uf*%
%TO.CLbN,Capacitor_THT*%
%TO.CMnt,TH*%
%TO.CRot,90*%
X165189000Y-112498000D03*
D11*
X165562825Y-109531800D02*
X165854881Y-109601400D01*
X166135052Y-109709306D01*
X166398346Y-109853595D01*
X166640051Y-110031685D01*
X166855867Y-110240405D01*
X167041938Y-110476031D01*
X167194943Y-110734353D01*
X167312150Y-111010762D01*
X167391470Y-111300328D01*
X167431493Y-111597923D01*
X167433999Y-111748000D01*
X167431493Y-111898076D01*
X167391470Y-112195671D01*
X167312150Y-112485237D01*
X167194943Y-112761646D01*
X167041938Y-113019968D01*
X166855867Y-113255594D01*
X166640051Y-113464314D01*
X166398346Y-113642404D01*
X166135052Y-113786693D01*
X165854881Y-113894599D01*
X165562825Y-113964199D01*
X165264098Y-113994251D01*
X164964033Y-113984219D01*
X164667987Y-113934282D01*
X164381224Y-113845327D01*
X164108886Y-113718949D01*
X163855826Y-113557402D01*
X163626551Y-113363561D01*
X163425158Y-113140893D01*
X163255243Y-112893369D01*
X163119831Y-112625397D01*
X163021350Y-112341785D01*
X162961546Y-112047562D01*
X162941493Y-111748000D01*
X162961546Y-111448437D01*
X163021350Y-111154214D01*
X163119831Y-110870602D01*
X163255243Y-110602630D01*
X163425158Y-110355106D01*
X163626551Y-110132438D01*
X163855826Y-109938597D01*
X164108886Y-109777050D01*
X164381224Y-109650672D01*
X164667987Y-109561717D01*
X164964033Y-109511780D01*
X165264098Y-109501748D01*
X165562825Y-109531800D01*
D12*
%TO.P,C27,1*%
X165189000Y-112498000D03*
D13*
%TO.P,C27,2*%
X165189000Y-110998000D03*
%TD*%
D10*
%TO.C,C26*%
%TO.CFtp,CP_Radial_D4.0mm_P1.50mm*%
%TO.CVal,1uf*%
%TO.CLbN,Capacitor_THT*%
%TO.CMnt,TH*%
%TO.CRot,90*%
X159639000Y-112498000D03*
D11*
X160012825Y-109531800D02*
X160304881Y-109601400D01*
X160585052Y-109709306D01*
X160848346Y-109853595D01*
X161090051Y-110031685D01*
X161305867Y-110240405D01*
X161491938Y-110476031D01*
X161644943Y-110734353D01*
X161762150Y-111010762D01*
X161841470Y-111300328D01*
X161881493Y-111597923D01*
X161883999Y-111748000D01*
X161881493Y-111898076D01*
X161841470Y-112195671D01*
X161762150Y-112485237D01*
X161644943Y-112761646D01*
X161491938Y-113019968D01*
X161305867Y-113255594D01*
X161090051Y-113464314D01*
X160848346Y-113642404D01*
X160585052Y-113786693D01*
X160304881Y-113894599D01*
X160012825Y-113964199D01*
X159714098Y-113994251D01*
X159414033Y-113984219D01*
X159117987Y-113934282D01*
X158831224Y-113845327D01*
X158558886Y-113718949D01*
X158305826Y-113557402D01*
X158076551Y-113363561D01*
X157875158Y-113140893D01*
X157705243Y-112893369D01*
X157569831Y-112625397D01*
X157471350Y-112341785D01*
X157411546Y-112047562D01*
X157391493Y-111748000D01*
X157411546Y-111448437D01*
X157471350Y-111154214D01*
X157569831Y-110870602D01*
X157705243Y-110602630D01*
X157875158Y-110355106D01*
X158076551Y-110132438D01*
X158305826Y-109938597D01*
X158558886Y-109777050D01*
X158831224Y-109650672D01*
X159117987Y-109561717D01*
X159414033Y-109511780D01*
X159714098Y-109501748D01*
X160012825Y-109531800D01*
D12*
%TO.P,C26,1*%
X159639000Y-112498000D03*
D13*
%TO.P,C26,2*%
X159639000Y-110998000D03*
%TD*%
D10*
%TO.C,R23*%
%TO.CFtp,R_1812_4532Metric*%
%TO.CVal,10K*%
%TO.CLbN,Resistor_SMD*%
%TO.CMnt,SMD*%
%TO.CRot,90*%
X184277000Y-80920500D03*
D11*
X186222000Y-77975500D02*
X186222000Y-83865500D01*
X182332000Y-83865500D01*
X182332000Y-77975500D01*
X186222000Y-77975500D01*
D12*
%TO.P,R23,1*%
X184277000Y-83058000D03*
D13*
%TO.P,R23,2*%
X184277000Y-78783000D03*
%TD*%
D10*
%TO.C,C21*%
%TO.CFtp,CP_Radial_D4.0mm_P1.50mm*%
%TO.CVal,0.1uF*%
%TO.CLbN,Capacitor_THT*%
%TO.CMnt,TH*%
%TO.CRot,90*%
X159385000Y-90511599D03*
D11*
X159758825Y-87545399D02*
X160050881Y-87614999D01*
X160331052Y-87722905D01*
X160594346Y-87867194D01*
X160836051Y-88045284D01*
X161051867Y-88254004D01*
X161237938Y-88489630D01*
X161390943Y-88747952D01*
X161508150Y-89024361D01*
X161587470Y-89313927D01*
X161627493Y-89611522D01*
X161629999Y-89761599D01*
X161627493Y-89911675D01*
X161587470Y-90209270D01*
X161508150Y-90498836D01*
X161390943Y-90775245D01*
X161237938Y-91033567D01*
X161051867Y-91269193D01*
X160836051Y-91477913D01*
X160594346Y-91656003D01*
X160331052Y-91800292D01*
X160050881Y-91908198D01*
X159758825Y-91977798D01*
X159460098Y-92007850D01*
X159160033Y-91997818D01*
X158863987Y-91947881D01*
X158577224Y-91858926D01*
X158304886Y-91732548D01*
X158051826Y-91571001D01*
X157822551Y-91377160D01*
X157621158Y-91154492D01*
X157451243Y-90906968D01*
X157315831Y-90638996D01*
X157217350Y-90355384D01*
X157157546Y-90061161D01*
X157137493Y-89761599D01*
X157157546Y-89462036D01*
X157217350Y-89167813D01*
X157315831Y-88884201D01*
X157451243Y-88616229D01*
X157621158Y-88368705D01*
X157822551Y-88146037D01*
X158051826Y-87952196D01*
X158304886Y-87790649D01*
X158577224Y-87664271D01*
X158863987Y-87575316D01*
X159160033Y-87525379D01*
X159460098Y-87515347D01*
X159758825Y-87545399D01*
D12*
%TO.P,C21,1*%
X159385000Y-90511599D03*
D13*
%TO.P,C21,2*%
X159385000Y-89011599D03*
%TD*%
D10*
%TO.C,L4*%
%TO.CFtp,L0603*%
%TO.CVal,FCM1608KF-601T03*%
%TO.CLbN,lcsc*%
%TO.CMnt,SMD*%
%TO.CRot,-90*%
X175387000Y-76835000D03*
D14*
X175817000Y-75735000D02*
X174957000Y-75735000D01*
X174957000Y-77935000D01*
X175817000Y-77935000D01*
X175817000Y-75735000D01*
D12*
%TO.P,L4,1,1*%
X175387000Y-76135000D03*
D13*
%TO.P,L4,2,2*%
X175387000Y-77535000D03*
%TD*%
D10*
%TO.C,C30*%
%TO.CFtp,CP_Radial_D4.0mm_P1.50mm*%
%TO.CVal,100nF*%
%TO.CLbN,Capacitor_THT*%
%TO.CMnt,TH*%
%TO.CRot,90*%
X181839000Y-112498000D03*
D11*
X182212825Y-109531800D02*
X182504881Y-109601400D01*
X182785052Y-109709306D01*
X183048346Y-109853595D01*
X183290051Y-110031685D01*
X183505867Y-110240405D01*
X183691938Y-110476031D01*
X183844943Y-110734353D01*
X183962150Y-111010762D01*
X184041470Y-111300328D01*
X184081493Y-111597923D01*
X184083999Y-111748000D01*
X184081493Y-111898076D01*
X184041470Y-112195671D01*
X183962150Y-112485237D01*
X183844943Y-112761646D01*
X183691938Y-113019968D01*
X183505867Y-113255594D01*
X183290051Y-113464314D01*
X183048346Y-113642404D01*
X182785052Y-113786693D01*
X182504881Y-113894599D01*
X182212825Y-113964199D01*
X181914098Y-113994251D01*
X181614033Y-113984219D01*
X181317987Y-113934282D01*
X181031224Y-113845327D01*
X180758886Y-113718949D01*
X180505826Y-113557402D01*
X180276551Y-113363561D01*
X180075158Y-113140893D01*
X179905243Y-112893369D01*
X179769831Y-112625397D01*
X179671350Y-112341785D01*
X179611546Y-112047562D01*
X179591493Y-111748000D01*
X179611546Y-111448437D01*
X179671350Y-111154214D01*
X179769831Y-110870602D01*
X179905243Y-110602630D01*
X180075158Y-110355106D01*
X180276551Y-110132438D01*
X180505826Y-109938597D01*
X180758886Y-109777050D01*
X181031224Y-109650672D01*
X181317987Y-109561717D01*
X181614033Y-109511780D01*
X181914098Y-109501748D01*
X182212825Y-109531800D01*
D12*
%TO.P,C30,1*%
X181839000Y-112498000D03*
D13*
%TO.P,C30,2*%
X181839000Y-110998000D03*
%TD*%
D10*
%TO.C,R4*%
%TO.CFtp,R_1812_4532Metric*%
%TO.CVal,10k*%
%TO.CLbN,Resistor_SMD*%
%TO.CMnt,SMD*%
%TO.CRot,0*%
X186817000Y-139065000D03*
D11*
X189762000Y-137120000D02*
X189762000Y-141010000D01*
X183872000Y-141010000D01*
X183872000Y-137120000D01*
X189762000Y-137120000D01*
D12*
%TO.P,R4,1*%
X184679500Y-139065000D03*
D13*
%TO.P,R4,2*%
X188954500Y-139065000D03*
%TD*%
D10*
%TO.C,X2*%
%TO.CFtp,FC-135R_L3.2-W1.5*%
%TO.CVal,Q13FC1350000400*%
%TO.CLbN,lcsc*%
%TO.CMnt,SMD*%
%TO.CRot,-90*%
X153416000Y-80518000D03*
D14*
X154316000Y-78768000D02*
X152516000Y-78768000D01*
X152516000Y-82268000D01*
X154316000Y-82268000D01*
X154316000Y-78768000D01*
D12*
%TO.P,X2,1,1*%
X153416000Y-79268000D03*
D13*
%TO.P,X2,2,2*%
X153416000Y-81768000D03*
%TD*%
D10*
%TO.C,J1*%
%TO.CFtp,TerminalBlock_Xinya_XY308-2.54-2P_1x02_P2.54mm_Horizontal*%
%TO.CVal,Screw_Terminal_01x02*%
%TO.CLbN,TerminalBlock*%
%TO.CMnt,TH*%
%TO.CRot,-90*%
X138049000Y-117983000D03*
D11*
X141644000Y-115968000D02*
X141644000Y-122548000D01*
X134154000Y-122548000D01*
X134154000Y-115968000D01*
X141644000Y-115968000D01*
D12*
%TO.P,J1,1,Pin_1*%
X138049000Y-117983000D03*
D13*
%TO.P,J1,2,Pin_2*%
X138049000Y-120523000D03*
%TD*%
D10*
%TO.C,L2*%
%TO.CFtp,L_0805_2012Metric_Pad1.05x1.20mm_HandSolder*%
%TO.CVal,1.5uh*%
%TO.CLbN,Inductor_SMD*%
%TO.CMnt,SMD*%
%TO.CRot,-90*%
X153289000Y-126492000D03*
D11*
X154134000Y-124567000D02*
X154134000Y-128417000D01*
X152444000Y-128417000D01*
X152444000Y-124567000D01*
X154134000Y-124567000D01*
D12*
%TO.P,L2,1,1*%
X153289000Y-125342000D03*
D13*
%TO.P,L2,2,2*%
X153289000Y-127642000D03*
%TD*%
D10*
%TO.C,L3*%
%TO.CFtp,L_01005_0402Metric*%
%TO.CVal,5.6uH*%
%TO.CLbN,Inductor_SMD*%
%TO.CMnt,SMD*%
%TO.CRot,0*%
X152554500Y-105156000D03*
D11*
X153149500Y-104861000D02*
X153149500Y-105451000D01*
X151959500Y-105451000D01*
X151959500Y-104861000D01*
X153149500Y-104861000D01*
D12*
%TO.P,L3,1,1*%
X152304500Y-105156000D03*
D13*
%TO.P,L3,2,2*%
X152804500Y-105156000D03*
%TD*%
D10*
%TO.C,R2*%
%TO.CFtp,R_1812_4532Metric*%
%TO.CVal,5.1k*%
%TO.CLbN,Resistor_SMD*%
%TO.CMnt,SMD*%
%TO.CRot,0*%
X138811000Y-105854500D03*
D11*
X141756000Y-103909500D02*
X141756000Y-107799500D01*
X135866000Y-107799500D01*
X135866000Y-103909500D01*
X141756000Y-103909500D01*
D12*
%TO.P,R2,1*%
X136673500Y-105854500D03*
D13*
%TO.P,R2,2*%
X140948500Y-105854500D03*
%TD*%
D10*
%TO.C,C23*%
%TO.CFtp,CP_Radial_D4.0mm_P1.50mm*%
%TO.CVal,0.1uF*%
%TO.CLbN,Capacitor_THT*%
%TO.CMnt,TH*%
%TO.CRot,-90*%
X161544000Y-93242000D03*
D11*
X161917825Y-91775800D02*
X162209881Y-91845400D01*
X162490052Y-91953306D01*
X162753346Y-92097595D01*
X162995051Y-92275685D01*
X163210867Y-92484405D01*
X163396938Y-92720031D01*
X163549943Y-92978353D01*
X163667150Y-93254762D01*
X163746470Y-93544328D01*
X163786493Y-93841923D01*
X163788999Y-93992000D01*
X163786493Y-94142076D01*
X163746470Y-94439671D01*
X163667150Y-94729237D01*
X163549943Y-95005646D01*
X163396938Y-95263968D01*
X163210867Y-95499594D01*
X162995051Y-95708314D01*
X162753346Y-95886404D01*
X162490052Y-96030693D01*
X162209881Y-96138599D01*
X161917825Y-96208199D01*
X161619098Y-96238251D01*
X161319033Y-96228219D01*
X161022987Y-96178282D01*
X160736224Y-96089327D01*
X160463886Y-95962949D01*
X160210826Y-95801402D01*
X159981551Y-95607561D01*
X159780158Y-95384893D01*
X159610243Y-95137369D01*
X159474831Y-94869397D01*
X159376350Y-94585785D01*
X159316546Y-94291562D01*
X159296493Y-93992000D01*
X159316546Y-93692437D01*
X159376350Y-93398214D01*
X159474831Y-93114602D01*
X159610243Y-92846630D01*
X159780158Y-92599106D01*
X159981551Y-92376438D01*
X160210826Y-92182597D01*
X160463886Y-92021050D01*
X160736224Y-91894672D01*
X161022987Y-91805717D01*
X161319033Y-91755780D01*
X161619098Y-91745748D01*
X161917825Y-91775800D01*
D12*
%TO.P,C23,1*%
X161544000Y-93242000D03*
D13*
%TO.P,C23,2*%
X161544000Y-94742000D03*
%TD*%
D10*
%TO.C,C36*%
%TO.CFtp,CP_Radial_D4.0mm_P1.50mm*%
%TO.CVal,6.8pF*%
%TO.CLbN,Capacitor_THT*%
%TO.CMnt,TH*%
%TO.CRot,0*%
X148717000Y-83985000D03*
D11*
X149840825Y-81768800D02*
X150132881Y-81838400D01*
X150413052Y-81946306D01*
X150676346Y-82090595D01*
X150918051Y-82268685D01*
X151133867Y-82477405D01*
X151319938Y-82713031D01*
X151472943Y-82971353D01*
X151590150Y-83247762D01*
X151669470Y-83537328D01*
X151709493Y-83834923D01*
X151711999Y-83985000D01*
X151709493Y-84135076D01*
X151669470Y-84432671D01*
X151590150Y-84722237D01*
X151472943Y-84998646D01*
X151319938Y-85256968D01*
X151133867Y-85492594D01*
X150918051Y-85701314D01*
X150676346Y-85879404D01*
X150413052Y-86023693D01*
X150132881Y-86131599D01*
X149840825Y-86201199D01*
X149542098Y-86231251D01*
X149242033Y-86221219D01*
X148945987Y-86171282D01*
X148659224Y-86082327D01*
X148386886Y-85955949D01*
X148133826Y-85794402D01*
X147904551Y-85600561D01*
X147703158Y-85377893D01*
X147533243Y-85130369D01*
X147397831Y-84862397D01*
X147299350Y-84578785D01*
X147239546Y-84284562D01*
X147219493Y-83985000D01*
X147239546Y-83685437D01*
X147299350Y-83391214D01*
X147397831Y-83107602D01*
X147533243Y-82839630D01*
X147703158Y-82592106D01*
X147904551Y-82369438D01*
X148133826Y-82175597D01*
X148386886Y-82014050D01*
X148659224Y-81887672D01*
X148945987Y-81798717D01*
X149242033Y-81748780D01*
X149542098Y-81738748D01*
X149840825Y-81768800D01*
D12*
%TO.P,C36,1*%
X148717000Y-83985000D03*
D13*
%TO.P,C36,2*%
X150217000Y-83985000D03*
%TD*%
D10*
%TO.C,R8*%
%TO.CFtp,R_1812_4532Metric*%
%TO.CVal,10k*%
%TO.CLbN,Resistor_SMD*%
%TO.CMnt,SMD*%
%TO.CRot,180*%
X186817000Y-134747000D03*
D11*
X189762000Y-132802000D02*
X189762000Y-136692000D01*
X183872000Y-136692000D01*
X183872000Y-132802000D01*
X189762000Y-132802000D01*
D12*
%TO.P,R8,1*%
X188954500Y-134747000D03*
D13*
%TO.P,R8,2*%
X184679500Y-134747000D03*
%TD*%
D10*
%TO.C,R19*%
%TO.CFtp,R_1812_4532Metric*%
%TO.CVal,10K*%
%TO.CLbN,Resistor_SMD*%
%TO.CMnt,SMD*%
%TO.CRot,0*%
X189230000Y-92710000D03*
D11*
X192175000Y-90765000D02*
X192175000Y-94655000D01*
X186285000Y-94655000D01*
X186285000Y-90765000D01*
X192175000Y-90765000D01*
D12*
%TO.P,R19,1*%
X187092500Y-92710000D03*
D13*
%TO.P,R19,2*%
X191367500Y-92710000D03*
%TD*%
D10*
%TO.C,Card1*%
%TO.CFtp,TF-SMD_TF-01A*%
%TO.CVal,SD-CARD*%
%TO.CLbN,lcsc*%
%TO.CMnt,SMD*%
%TO.CRot,90*%
X192677000Y-75567000D03*
D14*
X186747000Y-83927000D02*
X198957000Y-83927000D01*
X198957000Y-67207000D01*
X186747000Y-67207000D01*
X186747000Y-83927000D01*
D12*
%TO.P,Card1,1,DAT2(RSV)*%
X187397000Y-73327000D03*
D13*
%TO.P,Card1,*%
X198247000Y-80517000D03*
X198247000Y-72517000D03*
%TO.P,Card1,2,CDDAT3(CS)*%
X187397000Y-74427000D03*
%TO.P,Card1,3,CMD(DI)*%
X187397000Y-75527000D03*
%TO.P,Card1,4,VDD*%
X187397000Y-76627000D03*
%TO.P,Card1,5,CLK(SCLK)*%
X187397000Y-77727000D03*
%TO.P,Card1,6,VSS*%
X187397000Y-78827000D03*
%TO.P,Card1,7,DAT0(D0)*%
X187397000Y-79927000D03*
%TO.P,Card1,8,DAT1(RSV)*%
X187397000Y-81027000D03*
%TO.P,Card1,9,CD*%
X187397000Y-82127000D03*
%TO.P,Card1,10,GND*%
X188247000Y-83327000D03*
%TO.P,Card1,11,GND*%
X197957000Y-83327000D03*
%TO.P,Card1,12,GND*%
X197957000Y-67807000D03*
%TO.P,Card1,13,GND*%
X188247000Y-68647000D03*
%TD*%
D10*
%TO.C,R12*%
%TO.CFtp,R_1812_4532Metric*%
%TO.CVal,10k*%
%TO.CLbN,Resistor_SMD*%
%TO.CMnt,SMD*%
%TO.CRot,0*%
X186817000Y-144907000D03*
D11*
X189762000Y-142962000D02*
X189762000Y-146852000D01*
X183872000Y-146852000D01*
X183872000Y-142962000D01*
X189762000Y-142962000D01*
D12*
%TO.P,R12,1*%
X184679500Y-144907000D03*
D13*
%TO.P,R12,2*%
X188954500Y-144907000D03*
%TD*%
D10*
%TO.C,S2*%
%TO.CFtp,PinHeader_1x03_P2.54mm_Vertical*%
%TO.CVal,Conn_01x03*%
%TO.CLbN,Connector_PinHeader_2.54mm*%
%TO.CMnt,TH*%
%TO.CRot,90*%
X195072000Y-101600000D03*
D11*
X201917000Y-99835000D02*
X201917000Y-103365000D01*
X193307000Y-103365000D01*
X193307000Y-99835000D01*
X201917000Y-99835000D01*
D12*
%TO.P,S2,1,Pin_1*%
X195072000Y-101600000D03*
D13*
%TO.P,S2,2,Pin_2*%
X197612000Y-101600000D03*
%TO.P,S2,3,Pin_3*%
X200152000Y-101600000D03*
%TD*%
D10*
%TO.C,SW1*%
%TO.CFtp,SW_Push_SPST_NO_Alps_SKRK*%
%TO.CVal,SW_Push*%
%TO.CLbN,Button_Switch_SMD*%
%TO.CMnt,SMD*%
%TO.CRot,90*%
X137922000Y-83185000D03*
D11*
X139617000Y-80440000D02*
X139617000Y-85930000D01*
X136227000Y-85930000D01*
X136227000Y-80440000D01*
X139617000Y-80440000D01*
D12*
%TO.P,SW1,1,1*%
X137922000Y-85285000D03*
D13*
%TO.P,SW1,2,2*%
X137922000Y-81085000D03*
%TD*%
D10*
%TO.C,R5*%
%TO.CFtp,R_1812_4532Metric*%
%TO.CVal,10K*%
%TO.CLbN,Resistor_SMD*%
%TO.CMnt,SMD*%
%TO.CRot,0*%
X142708311Y-140987000D03*
D11*
X145653311Y-139042000D02*
X145653311Y-142932000D01*
X139763311Y-142932000D01*
X139763311Y-139042000D01*
X145653311Y-139042000D01*
D12*
%TO.P,R5,1*%
X140570811Y-140987000D03*
D13*
%TO.P,R5,2*%
X144845811Y-140987000D03*
%TD*%
D10*
%TO.C,R6*%
%TO.CFtp,R_2512_6332Metric*%
%TO.CVal,30.1k*%
%TO.CLbN,Resistor_SMD*%
%TO.CMnt,SMD*%
%TO.CRot,180*%
X188722000Y-123444000D03*
D11*
X192547000Y-121519000D02*
X192547000Y-125369000D01*
X184897000Y-125369000D01*
X184897000Y-121519000D01*
X192547000Y-121519000D01*
D12*
%TO.P,R6,1*%
X191684500Y-123444000D03*
D13*
%TO.P,R6,2*%
X185759500Y-123444000D03*
%TD*%
D10*
%TO.C,R21*%
%TO.CFtp,R_1812_4532Metric*%
%TO.CVal,10K*%
%TO.CLbN,Resistor_SMD*%
%TO.CMnt,SMD*%
%TO.CRot,90*%
X195072000Y-90170000D03*
D11*
X197017000Y-87225000D02*
X197017000Y-93115000D01*
X193127000Y-93115000D01*
X193127000Y-87225000D01*
X197017000Y-87225000D01*
D12*
%TO.P,R21,1*%
X195072000Y-92307500D03*
D13*
%TO.P,R21,2*%
X195072000Y-88032500D03*
%TD*%
D10*
%TO.C,C24*%
%TO.CFtp,CP_Radial_D4.0mm_P1.50mm*%
%TO.CVal,2.2uF*%
%TO.CLbN,Capacitor_THT*%
%TO.CMnt,TH*%
%TO.CRot,180*%
X175871000Y-89154000D03*
D11*
X175494825Y-86937800D02*
X175786881Y-87007400D01*
X176067052Y-87115306D01*
X176330346Y-87259595D01*
X176572051Y-87437685D01*
X176787867Y-87646405D01*
X176973938Y-87882031D01*
X177126943Y-88140353D01*
X177244150Y-88416762D01*
X177323470Y-88706328D01*
X177363493Y-89003923D01*
X177365999Y-89154000D01*
X177363493Y-89304076D01*
X177323470Y-89601671D01*
X177244150Y-89891237D01*
X177126943Y-90167646D01*
X176973938Y-90425968D01*
X176787867Y-90661594D01*
X176572051Y-90870314D01*
X176330346Y-91048404D01*
X176067052Y-91192693D01*
X175786881Y-91300599D01*
X175494825Y-91370199D01*
X175196098Y-91400251D01*
X174896033Y-91390219D01*
X174599987Y-91340282D01*
X174313224Y-91251327D01*
X174040886Y-91124949D01*
X173787826Y-90963402D01*
X173558551Y-90769561D01*
X173357158Y-90546893D01*
X173187243Y-90299369D01*
X173051831Y-90031397D01*
X172953350Y-89747785D01*
X172893546Y-89453562D01*
X172873493Y-89154000D01*
X172893546Y-88854437D01*
X172953350Y-88560214D01*
X173051831Y-88276602D01*
X173187243Y-88008630D01*
X173357158Y-87761106D01*
X173558551Y-87538438D01*
X173787826Y-87344597D01*
X174040886Y-87183050D01*
X174313224Y-87056672D01*
X174599987Y-86967717D01*
X174896033Y-86917780D01*
X175196098Y-86907748D01*
X175494825Y-86937800D01*
D12*
%TO.P,C24,1*%
X175871000Y-89154000D03*
D13*
%TO.P,C24,2*%
X174371000Y-89154000D03*
%TD*%
M02*
